<svg xmlns="http://www.w3.org/2000/svg" xmlns:xlink="http://www.w3.org/1999/xlink" id="Capa_1" x="0px" y="0px" viewBox="0 0 91 87" style="enable-background:new 0 0 91 87;" xml:space="preserve"><style type="text/css">	.st0{fill:#F90D1B;}</style><path class="st0" d="M60.2,87H3.4C1.5,87,0,85.5,0,83.6V3.4C0,1.5,1.5,0,3.4,0h56.8c1.9,0,3.4,1.5,3.4,3.4v17.2 c0,0.7-0.6,1.3-1.3,1.3S61,21.4,61,20.7V3.4c0-0.4-0.4-0.8-0.8-0.8H3.4C3,2.6,2.6,3,2.6,3.4v80.1c0,0.4,0.4,0.8,0.8,0.8h56.8 c0.4,0,0.8-0.4,0.8-0.8V70.3c0-0.7,0.6-1.3,1.3-1.3s1.3,0.6,1.3,1.3v13.2C63.6,85.5,62.1,87,60.2,87z"></path><path class="st0" d="M13.2,27.6c-0.7,0-1.3-0.6-1.3-1.3V13.3c0-0.7,0.6-1.3,1.3-1.3h12.9c0.7,0,1.3,0.6,1.3,1.3 c0,0.7-0.6,1.3-1.3,1.3H14.5v11.6C14.5,27,13.9,27.6,13.2,27.6z"></path><path class="st0" d="M24.4,27.6c-0.4,0-0.8-0.2-1.1-0.5l-4.4-5.8c-0.4-0.6-0.3-1.4,0.2-1.8c0.6-0.4,1.4-0.3,1.8,0.2l3.4,4.5 l8.5-10.4c0.4-0.6,1.3-0.6,1.8-0.2c0.6,0.4,0.6,1.3,0.2,1.8l-9.5,11.7C25.1,27.5,24.7,27.6,24.4,27.6z"></path><path class="st0" d="M13.2,51.3c-0.7,0-1.3-0.6-1.3-1.3V37.1c0-0.7,0.6-1.3,1.3-1.3h12.9c0.7,0,1.3,0.6,1.3,1.3s-0.6,1.3-1.3,1.3 H14.5V50C14.5,50.7,13.9,51.3,13.2,51.3z"></path><path class="st0" d="M24.4,51.4c-0.4,0-0.8-0.2-1.1-0.5L18.9,45c-0.4-0.6-0.3-1.4,0.2-1.8c0.6-0.4,1.4-0.3,1.8,0.2l3.4,4.5l8.5-10.4 c0.4-0.6,1.3-0.6,1.8-0.2c0.6,0.4,0.6,1.3,0.2,1.8l-9.5,11.7C25.1,51.2,24.7,51.4,24.4,51.4z"></path><path class="st0" d="M13.2,75c-0.7,0-1.3-0.6-1.3-1.3V60.8c0-0.7,0.6-1.3,1.3-1.3h12.9c0.7,0,1.3,0.6,1.3,1.3s-0.6,1.3-1.3,1.3H14.5 v11.6C14.5,74.4,13.9,75,13.2,75z"></path><path class="st0" d="M24.4,75.1c-0.4,0-0.8-0.2-1.1-0.5l-4.4-5.8c-0.4-0.6-0.3-1.4,0.2-1.8c0.6-0.4,1.4-0.3,1.8,0.2l3.4,4.5 l8.6-10.4c0.4-0.6,1.3-0.6,1.8-0.2c0.6,0.4,0.6,1.3,0.2,1.8l-9.5,11.7C25.1,74.9,24.7,75.1,24.4,75.1z"></path><path class="st0" d="M85,74.1c-1.5,0-3-0.6-4.2-1.7l-9.4-9.5c-7.5,3.9-16.8,2.5-22.9-3.5c-3.7-3.7-5.7-8.6-5.7-13.8s2-10.1,5.7-13.8 c7.7-7.6,20.1-7.6,27.7,0c6,6,7.4,15.3,3.6,22.8l9.5,9.5c1.1,1.1,1.7,2.6,1.7,4.2s-0.6,3.1-1.7,4.2C88.1,73.5,86.6,74.1,85,74.1z  M71.6,60c0.3,0,0.7,0.1,0.9,0.4l10.1,10.1c1.3,1.3,3.4,1.3,4.8,0c0.6-0.6,1-1.5,1-2.4c0-0.9-0.3-1.7-1-2.4L77.3,55.7 c-0.4-0.4-0.5-1.1-0.2-1.6c3.9-6.7,2.8-15.1-2.7-20.6c-6.7-6.6-17.4-6.6-24.1,0c-3.2,3.2-5,7.5-5,12s1.8,8.8,5,12 c5.4,5.5,13.9,6.5,20.6,2.7C71.1,60.1,71.4,60,71.6,60z M62.3,57c-6.3,0-11.5-5.2-11.5-11.5C50.8,39.2,56,34,62.3,34 c0.7,0,1.3,0.6,1.3,1.3c0,0.7-0.6,1.3-1.3,1.3c-4.9,0-8.9,4-8.9,8.9s4,8.9,8.9,8.9s8.9-4,8.9-8.9c0-0.7,0.6-1.3,1.3-1.3 c0.7,0,1.3,0.6,1.3,1.3C73.8,51.8,68.7,57,62.3,57z"></path></svg>