<svg xmlns="http://www.w3.org/2000/svg" xmlns:xlink="http://www.w3.org/1999/xlink" id="Capa_1" x="0px" y="0px" viewBox="0 0 104 103" style="enable-background:new 0 0 104 103;" xml:space="preserve"><style type="text/css">	.st0{fill:#F90D1B;}</style><path class="st0" d="M17.6,103c-0.4,0-0.7-0.1-1.1-0.4c-0.6-0.6-0.6-1.5-0.1-2.2l9-9.5c2.1-2.3,5.2-3.6,8.3-3.6h33.7 c0.8,0,1.5-0.3,2.1-0.8l31.2-29.2c0.2-0.2,0.2-0.3,0.2-0.5c0-0.1-0.1-0.3-0.2-0.4c-4.4-3.4-8.6-3.4-13.5,0.3 c-6.8,5.1-12.8,9.5-12.8,9.5c-0.7,0.5-1.7,0.4-2.2-0.3c-0.5-0.7-0.4-1.7,0.3-2.2c0,0,6-4.5,12.8-9.6c6-4.5,11.8-4.6,17.4-0.2 c0.8,0.7,1.3,1.7,1.4,2.7c0.1,1.1-0.4,2.1-1.2,2.8L71.6,88.7c-1.1,1.1-2.6,1.7-4.2,1.7H33.6c-2.3,0-4.5,1-6,2.6l-9,9.5 C18.4,102.8,18,103,17.6,103z"></path><path class="st0" d="M2.6,81.8c-0.4,0-0.8-0.2-1.1-0.5c-0.6-0.6-0.6-1.6,0.1-2.2l15.3-14.7c9-8.5,22.5-9.1,31.9-1.4H61 c1,0,3.4,0.2,5.7,1.8c1.8,1.3,4.2,3.9,4.5,9c0.1,0.8-0.2,1.6-0.7,2.2C70,76.6,69.2,77,68.4,77H43.1c-0.9,0-1.6-0.7-1.6-1.5 s0.7-1.5,1.6-1.5h25.1c-0.6-7.1-5.6-7.7-7.2-7.7H48.1c-0.3,0-0.7-0.1-1-0.4c-8.2-7-20.2-6.6-28.1,1L3.6,81.4 C3.4,81.7,3,81.8,2.6,81.8z"></path><path class="st0" d="M54.6,53.8c-0.9,0-1.7-0.3-2.4-1C45.3,46,28.6,29.3,26,22.6c-3.3-8.4,0.7-18.1,8.9-21.4c3.9-1.6,8-1.6,11.9,0 c3.3,1.4,6.1,3.8,7.8,6.9c1.7-3,4.5-5.5,7.8-6.9c3.9-1.6,8.1-1.6,11.9,0c8.2,3.4,12.2,13,8.9,21.4C80.7,29.2,64,46,56.9,52.8 C56.4,53.5,55.5,53.8,54.6,53.8z M40.9,3.1c-1.6,0-3.2,0.3-4.8,1c-6.6,2.7-9.8,10.6-7.2,17.5c1.9,5,14.5,18.3,25.6,29.1 c0.1,0.1,0.2,0.1,0.3,0c11.1-10.9,23.7-24.2,25.6-29.1c2.6-6.9-0.6-14.7-7.2-17.5c-3-1.3-6.4-1.3-9.5,0c-3.2,1.3-5.7,3.8-7,6.9 c-0.3,0.9-1.1,1.4-2.1,1.4c-0.9,0-1.7-0.6-2.1-1.4c-1.3-3-3.8-5.5-7-6.9C44.1,3.4,42.5,3.1,40.9,3.1z"></path></svg>