<svg xmlns="http://www.w3.org/2000/svg" width="81" height="67" viewBox="0 0 81 67" fill="none"><path d="M76.6841 55.8589H4.31589C1.92674 55.8589 0 53.8612 0 51.4794V4.30275C0 1.92087 1.92674 0 4.31589 0H76.6841C79.0733 0 81 1.92087 81 4.30275V51.4794C81 53.8612 79.0733 55.8589 76.6841 55.8589ZM4.31589 2.30505C3.23692 2.30505 2.31208 3.22706 2.31208 4.30275V51.4794C2.31208 52.555 3.23692 53.4771 4.31589 53.4771H76.6841C77.7631 53.4771 78.6879 52.555 78.6879 51.4794V4.30275C78.6879 3.22706 77.7631 2.30505 76.6841 2.30505H4.31589Z" fill="#FF0000"></path><path d="M46.9348 67H34.0642C33.4477 67 32.9082 66.4621 32.9082 65.8475V54.6296C32.9082 54.0149 33.4477 53.4771 34.0642 53.4771H47.0119C47.6285 53.4771 48.168 54.0149 48.168 54.6296V65.8475C48.168 66.4621 47.6285 67 46.9348 67ZM35.2203 64.6949H45.7788V55.8589H35.2203V64.6949Z" fill="#FF0000"></path><path d="M55.5675 66.9999H25.4334C24.8168 66.9999 24.2773 66.462 24.2773 65.8473C24.2773 65.2327 24.8168 64.6948 25.4334 64.6948H55.6446C56.2612 64.6948 56.8007 65.2327 56.8007 65.8473C56.8007 66.462 56.2612 66.9999 55.5675 66.9999Z" fill="#FF0000"></path><path d="M38.6113 39.8773H38.5343C38.0718 39.8773 37.6865 39.57 37.5324 39.1858L29.5942 20.4381L22.5038 31.3486C22.2726 31.656 21.8873 31.8865 21.5019 31.8865H11.1746C10.558 31.8865 10.0186 31.3486 10.0186 30.7339C10.0186 30.1193 10.558 29.5814 11.1746 29.5814H20.8853L28.8235 17.2878C29.0547 16.9037 29.4401 16.75 29.9025 16.75C30.3649 16.75 30.6732 17.0573 30.9044 17.4415L38.8425 36.1124L46.3183 23.5115C46.5495 23.1273 46.9348 22.8968 47.3972 22.9736C47.8597 22.9736 48.245 23.2041 48.3991 23.5883L52.4068 31.5791L55.0271 27.6606C55.2583 27.3532 55.6437 27.1227 56.029 27.1227H69.9015C70.5181 27.1227 71.0576 27.6606 71.0576 28.2752C71.0576 28.8899 70.5181 29.4278 69.9015 29.4278H56.5685L53.1775 34.5757C52.9462 34.9599 52.5609 35.1135 52.0985 35.1135C51.7131 35.1135 51.3278 34.883 51.0966 34.4989L47.166 26.5849L39.6132 39.3395C39.382 39.7236 38.9967 39.8773 38.6113 39.8773Z" fill="#FF0000"></path></svg>