<svg xmlns="http://www.w3.org/2000/svg" width="120" height="74" viewBox="0 0 120 74" fill="none"><path d="M7.31287 38.4455C6.63466 38.4455 5.95646 38.2752 5.32064 37.9772L2.48065 36.5721C1.42096 36.0186 0.615587 35.1245 0.234097 33.9749C-0.147394 32.8253 -0.0626184 31.5905 0.488424 30.5261L14.3069 2.50997C15.4089 0.295935 18.1218 -0.640774 20.3683 0.466245L23.2083 1.87131C24.268 2.42482 25.0734 3.31895 25.4549 4.46855C25.8364 5.61814 25.7516 6.8529 25.2005 7.91734L11.3821 35.9334C10.5767 37.5088 8.96599 38.4455 7.31287 38.4455ZM3.92184 33.6768L6.76183 35.0819C7.39764 35.3799 8.16062 35.1245 8.49973 34.4858L22.3606 6.51228C22.6573 5.87361 22.4029 5.10721 21.7671 4.76659L18.9271 3.36153C18.2913 3.06348 17.5283 3.31895 17.1892 3.95761L3.32841 31.9311C3.15886 32.2292 3.15886 32.6124 3.24363 32.9104C3.3708 33.2511 3.58274 33.5065 3.92184 33.6768Z" fill="#F90D1B"></path><path d="M82.5515 45.6837C81.619 45.6837 80.6864 45.4708 79.8387 45.045L59.9588 35.0819C59.1534 34.6987 58.8567 33.7194 59.2382 32.9104C59.6197 32.1014 60.5946 31.8034 61.3999 32.1866L81.2799 42.1497C81.9581 42.4904 82.7634 42.5329 83.484 42.3201C84.2046 42.0646 84.798 41.5537 85.1371 40.8724C85.8577 39.4674 85.2643 37.7217 83.8655 36.9978L62.1205 26.1405C61.3152 25.7573 61.0185 24.7781 61.3999 23.9691C61.7814 23.1601 62.7564 22.8621 63.5617 23.2453L85.3067 34.1026C88.3162 35.5928 89.5455 39.297 88.0195 42.2775C87.2989 43.7251 86.0273 44.8321 84.5013 45.3431C83.8231 45.5985 83.1873 45.6837 82.5515 45.6837Z" fill="#F90D1B"></path><path d="M30.4146 12.0899C28.0833 12.0899 25.6672 11.7493 23.6326 10.7275C22.8272 10.3443 22.5305 9.36497 22.912 8.55599C23.2935 7.74702 24.2684 7.44897 25.0738 7.83217C27.7442 9.15208 31.6439 8.93919 34.4415 8.51341C37.8749 8.00248 41.0964 7.74702 44.1907 7.74702L56.4832 7.78959C57.3733 7.78959 58.0939 8.51341 58.0939 9.40754C58.0939 10.3017 57.3733 11.0255 56.4832 11.0255L44.1907 10.9829C41.2659 11.0255 38.214 11.1958 34.9078 11.7067C33.5937 11.9622 32.0254 12.0899 30.4146 12.0899Z" fill="#F90D1B"></path><path d="M82.4668 55.6895C81.5343 55.6895 80.6017 55.4767 79.754 55.0509L55.9744 43.1291C55.169 42.7459 54.8723 41.7666 55.2538 40.9577C55.6353 40.1487 56.6102 39.8506 57.4156 40.2338L81.1952 52.1556C81.8734 52.4962 82.6787 52.5388 83.3993 52.3259C84.1199 52.0704 84.7134 51.5595 85.0525 50.8783C85.3916 50.197 85.4339 49.388 85.222 48.6642C84.9677 47.9404 84.459 47.3443 83.7808 47.0037L60.0012 35.0819C59.1959 34.6987 58.8991 33.7195 59.2806 32.9105C59.6621 32.1015 60.6371 31.8035 61.4424 32.1867L85.222 44.1084C86.6632 44.8322 87.7653 46.1096 88.2739 47.6424C88.7826 49.1752 88.6554 50.8357 87.9348 52.3259C87.2142 53.7735 85.985 54.8806 84.4166 55.3915C83.7384 55.6044 83.1026 55.6895 82.4668 55.6895Z" fill="#F90D1B"></path><path d="M78.4823 63.7366C77.5498 63.7366 76.6173 63.5237 75.7695 63.098L59.1959 55.0934C58.3905 54.7102 58.0514 53.7309 58.4329 52.9219C58.8144 52.1129 59.7893 51.7723 60.5947 52.1555L77.1683 60.1601C77.8889 60.5007 78.6519 60.5859 79.3725 60.3304C80.0931 60.075 80.6865 59.564 81.0256 58.8828C81.7462 57.4777 81.1528 55.732 79.754 55.0082L55.9744 43.0865C55.169 42.7033 54.8723 41.724 55.2538 40.915C55.6353 40.106 56.6102 39.808 57.4156 40.1912L81.1952 52.1129C84.2047 53.6031 85.4339 57.3074 83.908 60.2878C83.1874 61.7355 81.9158 62.8425 80.3898 63.3534C79.754 63.6515 79.1182 63.7366 78.4823 63.7366Z" fill="#F90D1B"></path><path d="M67.3764 68.2074C66.4438 68.2074 65.5113 67.9945 64.6635 67.5687L60.1704 65.3121C59.3651 64.9289 59.0683 63.9496 59.4498 63.1406C59.8313 62.3316 60.8062 62.0336 61.6116 62.4168L66.1047 64.6734C66.7829 65.014 67.5883 65.0566 68.3089 64.8437C69.0295 64.5883 69.6229 64.0773 69.962 63.3961C70.6826 61.991 70.0892 60.2453 68.6904 59.5215L59.2379 55.0934C58.4325 54.7102 58.0934 53.7735 58.4749 52.9646C58.8564 52.1556 59.7889 51.815 60.5943 52.1982L70.0892 56.6688C73.1411 58.2016 74.3704 61.8633 72.8444 64.8863C72.1238 66.3339 70.8522 67.441 69.3262 67.9519C68.648 68.1222 68.0122 68.2074 67.3764 68.2074Z" fill="#F90D1B"></path><path d="M27.0232 48.579C26.7688 48.579 26.5569 48.5364 26.3026 48.4087L23.9288 47.2165C23.8865 47.2165 23.8865 47.1739 23.8441 47.1739C23.6321 47.0462 18.6304 44.1509 16.5534 40.7447C14.8578 37.9346 11.1701 35.8057 11.1277 35.8057C10.3647 35.3799 10.068 34.4006 10.4919 33.5916C10.9158 32.8252 11.8907 32.5272 12.6961 32.953C12.8656 33.0381 17.1468 35.465 19.3086 39.0416C20.665 41.2982 24.1408 43.5974 25.4124 44.3212L27.7437 45.4708C28.5491 45.854 28.8458 46.8333 28.4643 47.6423C28.1676 48.2383 27.6166 48.579 27.0232 48.579Z" fill="#F90D1B"></path><path d="M112.604 37.7217C111.078 37.7217 109.595 36.9553 108.747 35.5503L92.6819 8.81149C91.4102 6.68261 92.0885 3.87248 94.2078 2.59515L97.0902 0.849469C98.1075 0.210804 99.3368 0.0404935 100.481 0.338537C101.668 0.636581 102.643 1.3604 103.279 2.38227L119.344 29.121C119.98 30.1429 120.149 31.3777 119.852 32.5273C119.556 33.7194 118.835 34.6987 117.818 35.2948L114.936 37.0405C114.173 37.5088 113.367 37.7217 112.604 37.7217ZM99.3792 3.40413C99.1672 3.40413 98.9129 3.44671 98.701 3.57444L95.8186 5.32013C95.2252 5.70332 95.0132 6.46972 95.3947 7.10839L111.46 33.8472C111.629 34.1452 111.926 34.3581 112.265 34.4433C112.604 34.5284 112.943 34.4858 113.24 34.3155L116.122 32.5698C116.419 32.3995 116.631 32.1015 116.716 31.7609C116.801 31.4202 116.758 31.0796 116.589 30.7816L100.481 4.00022C100.312 3.70217 100.015 3.48929 99.6759 3.40413C99.5911 3.40413 99.5063 3.40413 99.3792 3.40413Z" fill="#F90D1B"></path><path d="M62.7988 26.3108C62.2478 26.3108 61.7391 26.0128 61.4 25.5444C60.9338 24.778 61.1881 23.7988 61.9511 23.3304L66.1051 20.8183C66.8681 20.35 67.843 20.6054 68.3093 21.3718C68.7755 22.1382 68.5212 23.1175 67.7582 23.5859L63.6042 26.098C63.3923 26.2257 63.0956 26.3108 62.7988 26.3108Z" fill="#F90D1B"></path><path d="M48.5567 25.4168C45.5048 25.4168 42.58 23.8414 40.9269 21.1164C40.2487 19.9668 40.0791 18.5617 40.4606 17.2844C40.8421 16.0071 41.7746 14.9426 42.9615 14.3891L59.196 6.85289C60.5525 6.21422 61.9936 6.04391 63.4772 6.34196L80.0085 9.57786C80.0933 9.57786 88.4013 11.2384 92.8096 8.59857C93.5726 8.13022 94.5475 8.38568 95.0138 9.15208C95.48 9.91848 95.2257 10.8978 94.4627 11.3661C88.9947 14.6872 79.7542 12.8563 79.3727 12.7712L62.8414 9.53528C62.0784 9.36497 61.2731 9.4927 60.5525 9.83332L44.3179 17.3696C43.9364 17.5399 43.6397 17.8805 43.5125 18.2637C43.3854 18.6895 43.4278 19.1153 43.6397 19.4559C45.0809 21.8402 48.0904 22.8195 50.6761 21.7551L58.7722 18.3063C59.1113 18.136 59.5352 18.136 59.8743 18.2637L67.3769 20.6481C68.2247 20.9035 68.6909 21.8402 68.4366 22.6918C68.1823 23.5433 67.2497 24.0117 66.402 23.7562L59.4504 21.5422L51.9053 24.7355C50.8456 25.2039 49.7012 25.4168 48.5567 25.4168Z" fill="#F90D1B"></path><path d="M83.2715 55.9024C82.7205 55.9024 82.2118 55.6043 81.8727 55.136C81.4064 54.3696 81.6608 53.3903 82.4237 52.9219L95.3944 45.0451C96.6237 44.1935 99.8875 41.5963 101.032 39.2971C102.897 35.5928 106.966 32.8253 107.136 32.6975C107.856 32.1866 108.874 32.3995 109.382 33.1233C109.891 33.8471 109.679 34.869 108.959 35.3799C108.916 35.4225 105.398 37.8069 103.957 40.7447C102.176 44.3212 97.429 47.5997 97.2171 47.7275C97.1747 47.7275 97.1747 47.77 97.1323 47.77L84.1192 55.6469C83.8225 55.8172 83.5258 55.9024 83.2715 55.9024Z" fill="#F90D1B"></path><path d="M32.6186 53.1775C30.8383 53.1775 29.1004 52.4111 27.9135 50.9634C25.7941 48.3662 26.1756 44.4916 28.7613 42.3627L33.1696 38.7436C34.4412 37.7218 36.0096 37.2108 37.6203 37.3812C39.2311 37.5515 40.7146 38.3179 41.7319 39.5952C42.7493 40.8725 43.2579 42.4479 43.0884 44.0658C42.9188 45.6838 42.1558 47.174 40.8842 48.1959L36.4759 51.815C35.3738 52.7091 33.975 53.1775 32.6186 53.1775ZM37.0269 40.5319C36.3487 40.5319 35.7129 40.7448 35.2042 41.1706L30.7959 44.7897C30.2025 45.258 29.821 45.9818 29.7786 46.7482C29.6938 47.5146 29.9481 48.281 30.4144 48.8771C31.4317 50.1119 33.212 50.2822 34.4412 49.2603L38.8496 45.6412C40.0788 44.6194 40.2484 42.8311 39.2311 41.5963C38.7648 41.0003 38.0442 40.6171 37.2812 40.5745C37.2388 40.5745 37.1117 40.5319 37.0269 40.5319Z" fill="#F90D1B"></path><path d="M36.8573 61.3098C35.077 61.3098 33.3391 60.5434 32.1522 59.0958C31.1349 57.8185 30.6263 56.2431 30.7958 54.6251C30.9654 53.0072 31.7283 51.517 33 50.4951L40.3331 44.4491C42.9187 42.3202 46.776 42.7034 48.8954 45.3006C51.0148 47.8979 50.6333 51.7724 48.0477 53.9013L40.7146 59.9473C39.5701 60.8841 38.2137 61.3098 36.8573 61.3098ZM44.148 46.2799C43.4698 46.2799 42.834 46.4928 42.3253 46.9186L34.9922 52.9646C34.3988 53.433 34.0173 54.1568 33.9749 54.9232C33.8901 55.6896 34.1444 56.456 34.6107 57.0521C35.628 58.2868 37.4083 58.4571 38.6376 57.4353L45.9707 51.3892C47.1999 50.3674 47.3695 48.5791 46.3521 47.3443C45.8859 46.7483 45.1653 46.3651 44.4023 46.3225C44.3599 46.3225 44.2751 46.2799 44.148 46.2799Z" fill="#F90D1B"></path><path d="M43.5121 67.4836C43.3002 67.4836 43.1306 67.4836 42.9187 67.441C41.308 67.2707 39.8244 66.5043 38.8071 65.227C36.6877 62.6297 37.0692 58.7552 39.6548 56.6263L45.0381 52.1556C46.3097 51.1338 47.8781 50.6228 49.4888 50.7931C51.0995 50.9634 52.5831 51.7298 53.6004 53.0072C54.6177 54.2845 55.1264 55.8599 54.9568 57.4778C54.7873 59.0958 54.0243 60.586 52.7527 61.6079L47.3694 66.0785C46.2673 67.0152 44.9109 67.4836 43.5121 67.4836ZM48.8954 54.029C48.2172 54.029 47.5814 54.2419 47.0727 54.6677L41.6894 59.1384C40.4602 60.1602 40.2906 61.9485 41.3079 63.1832C41.7742 63.7793 42.4948 64.1625 43.2578 64.2051C44.0208 64.2903 44.7838 64.0348 45.3772 63.5664L50.7604 59.0958C51.3539 58.6274 51.7354 57.9036 51.7777 57.1372C51.8625 56.3708 51.6082 55.6044 51.1419 55.0083C50.6757 54.4122 49.9551 54.029 49.1921 53.9865C49.0649 54.029 48.9802 54.029 48.8954 54.029Z" fill="#F90D1B"></path><path d="M49.6586 73.998C49.4467 73.998 49.2347 73.998 49.0652 73.9554C47.4544 73.7851 45.9709 73.0187 44.9535 71.7414C42.8342 69.1441 43.2156 65.2696 45.8013 63.1407L50.2096 59.5216C52.7953 57.3927 56.6526 57.7759 58.772 60.3731C59.7893 61.6505 60.2979 63.2258 60.1284 64.8438C59.9588 66.4617 59.1959 67.952 57.9242 68.9738L53.5159 72.5929C52.4138 73.5296 51.0998 73.998 49.6586 73.998ZM54.0669 61.395C53.4311 61.395 52.7953 61.6079 52.2443 62.0337L47.8359 65.6528C46.6067 66.6746 46.4371 68.4629 47.4544 69.6976C47.9207 70.2937 48.6413 70.6769 49.4043 70.7195C50.1673 70.8047 50.9302 70.5492 51.5237 70.0808L55.932 66.4617C56.5254 65.9934 56.9069 65.2696 56.9493 64.5032C57.0341 63.7368 56.7798 62.9704 56.3135 62.3743C55.7201 61.7356 54.9147 61.395 54.0669 61.395Z" fill="#F90D1B"></path></svg>