<svg xmlns="http://www.w3.org/2000/svg" width="68" height="77" viewBox="0 0 68 77" fill="none"><path d="M27.9789 76.9145C27.2091 76.9145 26.6104 76.2283 26.6959 75.5421C26.7814 73.3118 26.867 71.5962 26.3538 70.9958C26.0116 70.6527 25.2418 70.4811 24.0443 70.5669C23.3601 70.5669 22.7613 70.0522 22.6758 69.2802C22.6758 68.594 23.189 67.9935 23.9588 67.9077C26.0116 67.822 27.2947 68.2509 28.15 69.1086C29.5185 70.4811 29.3475 72.6256 29.2619 75.6278C29.2619 76.3998 28.6632 76.9145 27.9789 76.9145Z" fill="#FF0000"></path><path d="M7.87867 42.4316C7.62207 42.4316 7.36546 42.3458 7.10886 42.1742C6.51012 41.7453 6.42458 40.9733 6.85226 40.3729C9.41829 36.8559 9.16169 35.9982 9.16169 35.9982C6.16798 33.5106 7.27993 28.707 7.36546 28.4496C8.30634 23.3029 9.33276 19.5286 11.6422 16.5264C12.0699 15.9259 12.9252 15.8401 13.4384 16.269C14.0372 16.6979 14.1227 17.5557 13.695 18.0704C11.7277 20.6438 10.7868 23.9891 9.9315 28.8785C9.6749 29.9079 9.41829 32.6528 10.8724 33.8537C13.2674 35.9124 10.3592 39.8582 8.99062 41.7453C8.64848 42.26 8.30634 42.4316 7.87867 42.4316Z" fill="#FF0000"></path><path d="M11.3856 73.998C7.02338 73.998 3.25986 65.0771 1.6347 59.673C-0.589199 51.8671 -1.18794 42.7746 4.02967 40.4585C4.97055 40.0297 9.07621 39.515 27.3806 43.2892C27.9794 43.4608 28.407 43.9755 28.407 44.6617C28.0649 52.0387 31.3152 55.4698 31.4007 55.5556C31.8284 56.0703 31.9139 56.7565 31.4863 57.2712C30.2033 58.901 18.1429 73.0545 11.8989 73.998C11.7278 73.998 11.5567 73.998 11.3856 73.998ZM5.05608 42.7746C2.14791 44.147 1.80577 50.752 4.1152 58.901C6.42464 66.9642 10.0171 71.5962 11.4712 71.3389C15.7479 70.7385 24.8146 61.0455 28.8347 56.4134C27.7228 54.8694 25.7555 51.2667 25.7555 45.6053C16.7743 43.8039 6.59571 42.2599 5.05608 42.7746Z" fill="#FF0000"></path><path d="M34.5657 55.9845C34.0525 55.9845 33.5393 55.6414 33.3683 55.1267C33.1117 54.4405 33.4538 53.6685 34.1381 53.4111C44.9154 49.208 49.3632 42.5172 49.8764 37.6278C50.133 35.6549 49.6198 33.9394 48.679 33.2531C46.8827 31.9664 43.3758 33.2531 38.6714 36.8558C34.8223 39.7723 31.572 43.2892 31.4865 43.375C30.9733 43.8897 30.2035 43.8897 29.6903 43.4608C29.1771 42.9461 29.1771 42.1741 29.6047 41.6594C31.0588 40.1154 43.7179 26.7339 50.133 31.1944C51.9293 32.4811 52.7846 34.9687 52.4425 37.971C51.7582 43.6324 46.8827 51.2667 35.079 55.8987C34.9079 55.8987 34.7368 55.9845 34.5657 55.9845Z" fill="#FF0000"></path><path d="M57.4886 77.0002C56.7188 77.0002 56.2056 76.3998 56.2056 75.7136C56.3767 65.9348 58.6006 60.6165 60.7389 55.5555C63.0484 49.9799 65.4434 44.3185 65.4434 32.4811C65.4434 23.1312 62.8773 15.9257 57.8308 11.2937C50.6459 4.43139 40.6383 5.03184 40.5528 5.03184H40.4673C38.4144 5.03184 20.7088 5.03184 15.6622 4.0025C14.2081 3.74516 11.5566 3.14471 10.7012 4.08828C10.1025 4.68873 10.188 6.06119 10.3591 7.09053C10.7012 9.06345 12.9251 10.3501 15.0635 11.6368C17.2018 12.9235 19.5113 14.2102 20.0245 16.4404C20.3666 17.8129 20.0245 19.2711 18.9125 20.8151C18.827 20.9009 18.7415 20.9867 18.7415 21.0725C19.0836 21.1583 19.5968 21.3298 19.9389 21.4156C22.1628 21.9303 26.7817 23.0454 25.3276 29.393C25.1566 30.0792 24.4723 30.5081 23.788 30.4224C23.1037 30.2508 22.6761 29.5646 22.7616 28.8783C23.6169 25.0183 21.7352 24.5894 19.2547 23.989C17.9717 23.6458 16.6031 23.3885 16.0899 22.1018C15.6622 20.9009 16.3465 19.7858 16.6031 19.3569C17.2018 18.4133 17.4584 17.5555 17.3729 16.9551C17.1163 15.84 15.4912 14.8964 13.6949 13.8671C11.1289 12.4088 8.30625 10.6932 7.79304 7.51943C7.36537 5.11762 7.79304 3.31627 8.90499 2.20114C10.7867 0.399788 14.0371 1.00024 16.1754 1.42913C20.9654 2.3727 39.1842 2.45848 40.3817 2.45848C41.3226 2.3727 51.7578 1.94381 59.627 9.32078C65.1867 14.5533 68.0094 22.2734 68.0094 32.4811C68.0094 44.8332 65.5289 50.7519 63.1339 56.4991C60.9956 61.6458 58.9427 66.4495 58.7717 75.7136C58.7717 76.3998 58.1729 77.0002 57.4886 77.0002Z" fill="#FF0000"></path></svg>