<svg xmlns="http://www.w3.org/2000/svg" xmlns:xlink="http://www.w3.org/1999/xlink" id="Capa_1" x="0px" y="0px" viewBox="0 0 109 97" style="enable-background:new 0 0 109 97;" xml:space="preserve"><style type="text/css">	.st0{fill:#F90D1B;}</style><path class="st0" d="M64.2,89.6c-0.4,0-0.8-0.2-1.1-0.5L19.2,45.6c-0.6-0.6-0.6-1.6,0-2.2l34.2-34c12.7-12.6,33.4-12.6,46.1,0 c6.2,6.1,9.5,14.2,9.5,22.9c0,8.6-3.4,16.8-9.5,22.9l-34.2,34C65,89.4,64.6,89.6,64.2,89.6z M22.5,44.5l41.6,41.3l33-32.8 c5.6-5.5,8.6-12.9,8.6-20.6c0-7.8-3.1-15.2-8.6-20.6c-5.6-5.5-12.9-8.5-20.8-8.5s-15.3,3.1-20.8,8.5L22.5,44.5z"></path><path class="st0" d="M16.1,61.1c-0.4,0-0.8-0.2-1.1-0.5l-5.5-5.4C3.4,49.1,0,41,0,32.4c0-8.6,3.4-16.8,9.5-22.9 C15.7,3.4,23.9,0,32.6,0c8.7,0,16.9,3.3,23.1,9.5c0.1,0.1,0.1,0.2,0.2,0.2l25.1,25c1,1,1.5,2.4,1.3,3.7c-0.2,1.3-0.9,2.5-2,3.2 c-6.8,4.3-15.5,3.3-21.1-2.4l-13.1-13c-0.7-0.7-1.6-1-2.6-1c-1,0-1.9,0.3-2.6,1L17.7,49.3v10.3c0,0.6-0.4,1.2-1,1.4 C16.6,61.1,16.3,61.1,16.1,61.1z M32.6,3.1c-7.8,0-15.3,3.1-20.8,8.5c-5.5,5.5-8.7,12.9-8.7,20.7S6.2,47.5,11.7,53l2.8,2.8v-7.1 c0-0.4,0.2-0.8,0.5-1.1l23.7-23.5c1.3-1.3,3-2,4.8-2c1.8,0,3.5,0.7,4.8,2l13.1,13c4.6,4.6,11.7,5.4,17.2,2c0.4-0.2,0.5-0.6,0.5-0.9 c0.1-0.4-0.1-0.9-0.4-1.2L53.4,11.7c-0.1-0.1-0.1-0.2-0.2-0.2C47.6,6.1,40.4,3.1,32.6,3.1z"></path><path class="st0" d="M54.5,96c-2.5,0-4.8-1-6.6-2.7c-2.3-2.2-3.1-5.4-2.6-8.4c-0.6,0.1-1.2,0.2-1.8,0.2c-2.5,0-4.8-1-6.6-2.7 c-2.3-2.2-3.1-5.4-2.6-8.4c-0.6,0.1-1.2,0.2-1.8,0.2c-2.5,0-4.8-1-6.6-2.7c-1.7-1.7-2.7-4.1-2.7-6.6c0-0.6,0.1-1.2,0.2-1.8 c-0.6,0.1-1.2,0.2-1.8,0.2c-2.5,0-4.8-1-6.6-2.7c-1.7-1.7-2.7-4.1-2.7-6.6c0-2.5,1-4.8,2.7-6.6l8.4-8.3c0.6-0.6,1.6-0.6,2.2,0 c0.6,0.6,0.6,1.6,0,2.2l-8.4,8.4c-1.2,1.2-1.8,2.7-1.8,4.3s0.6,3.2,1.8,4.3c1.2,1.2,2.7,1.8,4.4,1.8c1.6,0,3.2-0.6,4.4-1.8l4.2-4.2 c0.6-0.6,1.6-0.6,2.2,0c0.3,0.3,0.5,0.7,0.5,1.1c0,0.4-0.2,0.8-0.5,1.1l-4.2,4.2c-1.2,1.2-1.8,2.7-1.8,4.3c0,1.6,0.6,3.2,1.8,4.3 c1.2,1.2,2.7,1.8,4.4,1.8c1.6,0,3.2-0.6,4.4-1.8l4.2-4.2c0.6-0.6,1.6-0.6,2.2,0c0.3,0.3,0.5,0.7,0.5,1.1c0,0.4-0.2,0.8-0.5,1.1 l-4.2,4.2c-2.4,2.4-2.4,6.3,0,8.6c1.2,1.2,2.7,1.8,4.4,1.8c1.6,0,3.2-0.6,4.4-1.8l4.2-4.2c0.6-0.6,1.6-0.6,2.2,0 c0.3,0.3,0.5,0.7,0.5,1.1c0,0.4-0.2,0.8-0.5,1.1L50,82.3c-2.4,2.4-2.4,6.3,0,8.6c1.2,1.2,2.7,1.8,4.4,1.8s3.2-0.6,4.4-1.8l8.4-8.3 c0.6-0.6,1.6-0.6,2.2,0c0.6,0.6,0.6,1.6,0,2.2l-8.4,8.3C59.3,95,57,96,54.5,96z"></path><path class="st0" d="M31.2,57c-0.4,0-0.8-0.2-1.1-0.5c-0.6-0.6-0.6-1.6,0-2.2l12.3-12.2c0.6-0.6,1.6-0.6,2.2,0 c0.6,0.6,0.6,1.6,0,2.2l-8,8l-4.2,4.2C32.1,56.8,31.6,57,31.2,57z"></path><path class="st0" d="M42.2,67.8c-0.4,0-0.8-0.2-1.1-0.5c-0.3-0.3-0.5-0.7-0.5-1.1s0.2-0.8,0.5-1.1L53.4,53c0.6-0.6,1.6-0.6,2.2,0 c0.6,0.6,0.6,1.6,0,2.2L43.3,67.4C43,67.7,42.6,67.8,42.2,67.8z"></path><path class="st0" d="M53.2,78.7c-0.4,0-0.8-0.2-1.1-0.5c-0.3-0.3-0.5-0.7-0.5-1.1s0.2-0.8,0.5-1.1l12.3-12.2c0.6-0.6,1.6-0.6,2.2,0 c0.6,0.6,0.6,1.6,0,2.2L54.3,78.3C54,78.6,53.6,78.7,53.2,78.7z"></path></svg>