<svg xmlns="http://www.w3.org/2000/svg" width="96" height="96" viewBox="0 0 96 96" fill="none"><path d="M41.0746 96.0002C18.4432 96.0002 0 77.5938 0 54.9256C0 32.2574 18.4432 13.8142 41.0746 13.8142C50.039 13.8142 58.5626 16.6431 65.7268 22.0071C66.3513 22.4847 66.4615 23.3297 66.0207 23.9543C65.5431 24.5788 64.6981 24.6891 64.0735 24.2482C57.4237 19.2516 49.4512 16.6064 41.1114 16.6064C19.9862 16.6064 2.79219 33.8004 2.79219 54.9256C2.79219 76.0507 19.9862 93.2448 41.1114 93.2448C62.2365 93.2448 79.4305 76.0507 79.4305 54.9256C79.4305 46.549 76.7853 38.6133 71.7887 31.9635C71.3111 31.3389 71.4581 30.4571 72.0827 30.0163C72.7072 29.5387 73.5522 29.6856 74.0299 30.3102C79.3938 37.4744 82.2227 45.9979 82.2227 54.9623C82.186 77.5938 63.7428 96.0002 41.0746 96.0002Z" fill="#F90D1B"></path><path d="M41.0741 80.5329C26.9295 80.5329 15.4668 69.0335 15.4668 54.9256C15.4668 40.8177 26.9662 29.3182 41.0741 29.3182C45.8135 29.3182 50.4427 30.6409 54.484 33.1024C55.1453 33.5065 55.329 34.3515 54.9249 35.0128C54.5208 35.6742 53.6758 35.8578 53.0144 35.4537C49.414 33.2494 45.2992 32.0737 41.0741 32.0737C28.4725 32.0737 18.2223 42.324 18.2223 54.9256C18.2223 67.5272 28.4725 77.7775 41.0741 77.7775C53.6758 77.7775 63.926 67.5272 63.926 54.9256C63.926 50.7006 62.7504 46.549 60.546 42.9485C60.1419 42.2872 60.3623 41.4422 60.9869 41.0381C61.6482 40.634 62.4932 40.8544 62.8973 41.479C65.3956 45.5203 66.6815 50.1495 66.6815 54.9256C66.7182 69.0335 55.2188 80.5329 41.0741 80.5329Z" fill="#F90D1B"></path><path d="M41.0748 66.278C34.7923 66.278 29.6855 61.1713 29.6855 54.8888C29.6855 48.6064 34.7923 43.4996 41.0748 43.4996C41.8463 43.4996 42.6178 43.5731 43.3526 43.7201C44.1241 43.867 44.6017 44.6018 44.4548 45.3733C44.3078 46.1449 43.573 46.6225 42.8015 46.4755C42.2504 46.3653 41.6626 46.2918 41.0748 46.2918C36.3354 46.2918 32.4777 50.1495 32.4777 54.8888C32.4777 59.6282 36.3354 63.4859 41.0748 63.4859C45.8141 63.4859 49.6718 59.6282 49.6718 54.8888C49.6718 54.301 49.5983 53.7132 49.4881 53.1621C49.3411 52.3906 49.8187 51.6558 50.5903 51.5088C51.325 51.3619 52.0966 51.8395 52.2435 52.611C52.3905 53.3458 52.464 54.1173 52.464 54.8888C52.464 61.208 47.3572 66.278 41.0748 66.278Z" fill="#F90D1B"></path><path d="M41.0742 56.3217C40.7068 56.3217 40.3762 56.1747 40.0823 55.9175C39.5312 55.3664 39.5312 54.4847 40.0823 53.9336L71.8618 22.154C72.4129 21.6029 73.2947 21.6029 73.8458 22.154C74.3968 22.7051 74.3968 23.5869 73.8458 24.138L42.0662 55.9175C41.809 56.1747 41.4416 56.3217 41.0742 56.3217Z" fill="#F90D1B"></path><path d="M72.8535 24.5421C72.6331 24.5421 72.4494 24.5053 72.229 24.3951C71.6779 24.138 71.3839 23.5501 71.4574 22.9623L72.927 11.7568C72.9637 11.4629 73.1107 11.1689 73.3311 10.9485L83.8753 0.40431C84.2795 0.000177176 84.9408 -0.110041 85.4919 0.147135C86.043 0.40431 86.3369 0.992141 86.2634 1.57997L84.7938 12.7487C84.7571 13.0427 84.6101 13.3366 84.3897 13.557L73.8455 24.1379C73.5883 24.3951 73.2209 24.5421 72.8535 24.5421ZM75.6457 12.6018L74.764 19.2516L82.0751 11.9037L82.9569 5.29065L75.6457 12.6018Z" fill="#F90D1B"></path><path d="M72.8543 24.5421C72.3399 24.5421 71.8256 24.2482 71.6051 23.7706C71.348 23.2195 71.4582 22.5949 71.8623 22.154L82.4065 11.6098C82.627 11.3894 82.9209 11.2424 83.2148 11.2057L94.4203 9.73611C95.0081 9.66263 95.596 9.95655 95.8531 10.5076C96.1103 11.0587 96.0001 11.6833 95.596 12.1242L85.015 22.6684C84.7946 22.8888 84.5007 23.0358 84.2067 23.0725L73.038 24.5421C72.9645 24.5421 72.9278 24.5421 72.8543 24.5421ZM84.0598 13.9244L76.7487 21.2355L83.3617 20.3538L90.7096 13.0427L84.0598 13.9244Z" fill="#F90D1B"></path></svg>