<svg xmlns="http://www.w3.org/2000/svg" width="78" height="75" viewBox="0 0 78 75" fill="none"><path d="M10.1095 74.0131C8.02343 74.0131 6.27115 73.429 4.76919 72.1773C-1.48897 67.0039 -0.487661 51.9844 1.59839 40.3025C5.43673 18.1069 18.3702 10.4302 19.3715 9.92957C22.0417 8.26073 24.0443 8.67794 25.2959 9.34548C30.5528 12.0991 33.6401 24.8657 34.4746 47.3116C35.1421 65.502 24.3781 69.5906 15.7835 72.7614L15.2829 72.9283C13.4472 73.6793 11.6949 74.0131 10.1095 74.0131ZM20.6232 12.0991C20.5397 12.0991 17.3689 13.9348 13.6975 18.3572C10.3598 22.4459 5.93738 29.6219 4.01821 40.7197C1.43151 56.073 2.26593 66.837 6.43803 70.2582C8.3572 71.8436 10.9439 71.927 14.5319 70.5919L15.0326 70.4251C23.2933 67.3377 32.7223 63.8331 32.0547 47.3951C31.2203 26.8683 28.3833 13.7679 24.2112 11.5984C23.5436 11.2646 22.4589 10.9309 20.6232 12.0991C20.7066 12.0991 20.7066 12.0991 20.6232 12.0991Z" fill="#FF0000"></path><path d="M67.3511 74.0131C65.7657 74.0131 64.0135 73.6793 62.0943 72.9283L61.5937 72.7614C52.9991 69.5072 42.2351 65.502 42.9026 47.3116C43.7371 24.8657 46.8244 12.0991 52.0813 9.34548C53.3329 8.67794 55.4189 8.26073 58.0056 9.92957C59.0069 10.5137 71.9405 18.1069 75.7788 40.3025C77.7814 51.9844 78.8662 67.0039 72.608 72.1773C71.1895 73.429 69.4372 74.0131 67.3511 74.0131ZM54.5011 11.2646C54.0004 11.2646 53.5832 11.4315 53.3329 11.5984C49.1608 13.7679 46.3238 26.8683 45.4893 47.3951C44.9052 63.7497 54.2507 67.3377 62.5115 70.4251L63.0122 70.5919C66.5167 71.927 69.1869 71.8436 71.106 70.2582C75.1947 66.837 76.1126 56.073 73.4424 40.7197C71.4398 29.6219 67.0174 22.3624 63.6797 18.3572C60.0083 13.9348 56.8375 12.1825 56.754 12.0991C56.754 12.0991 56.6706 12.0991 56.6706 12.0156C55.8361 11.4315 55.0852 11.2646 54.5011 11.2646Z" fill="#FF0000"></path><path d="M30.4691 22.6128C30.1354 22.6128 29.8016 22.5294 29.5513 22.279C29.0506 21.7784 29.0506 20.944 29.5513 20.5267L29.8016 20.2764C33.0558 17.0222 34.8081 12.7666 34.8081 8.17732V1.25163C34.8081 0.584094 35.3922 0 36.0597 0C36.7273 0 37.3114 0.584094 37.3114 1.25163V8.09388C37.3114 13.3507 35.3088 18.2738 31.5539 21.9453L31.3036 22.1956C31.1367 22.5294 30.8029 22.6128 30.4691 22.6128Z" fill="#FF0000"></path><path d="M47.0741 22.6128C46.7404 22.6128 46.4066 22.5294 46.1563 22.279L45.9059 22.0287C42.2345 18.3573 40.1484 13.4342 40.1484 8.17732V1.25163C40.1484 0.584094 40.7325 0 41.4001 0C42.0676 0 42.6517 0.584094 42.6517 1.25163V8.09388C42.6517 12.6832 44.404 16.9387 47.6582 20.193L47.9086 20.4433C48.4092 20.944 48.4092 21.7784 47.9086 22.1956C47.6582 22.5294 47.4079 22.6128 47.0741 22.6128Z" fill="#FF0000"></path><path d="M45.9898 28.2866C45.8229 28.2866 45.5726 28.2032 45.4057 28.1197C40.8164 25.7834 37.8125 20.3596 37.6456 20.1093C37.3118 19.5252 37.5621 18.6908 38.1462 18.357C38.7303 18.0232 39.5648 18.2736 39.8985 18.8577C39.8985 18.9411 42.6521 23.7807 46.5739 25.8668C47.158 26.2006 47.4083 26.9515 47.158 27.5356C46.9077 28.0363 46.407 28.2866 45.9898 28.2866Z" fill="#FF0000"></path><path d="M31.5542 28.2867C31.137 28.2867 30.6363 28.0363 30.4695 27.6191C30.1357 27.035 30.386 26.2006 31.0536 25.9503C34.9753 23.9477 37.7289 19.0246 37.7289 18.9412C38.0627 18.3571 38.8137 18.1067 39.4812 18.4405C40.0653 18.7743 40.3156 19.5253 39.9819 20.1928C39.815 20.4431 36.8111 25.7834 32.2217 28.2032C31.9714 28.2867 31.7211 28.2867 31.5542 28.2867Z" fill="#FF0000"></path><path d="M70.354 49.2311C69.6865 49.2311 69.1024 48.7304 69.1024 47.9795C68.6018 32.1255 60.341 22.2793 60.2576 22.1959C59.8403 21.6952 59.8403 20.8608 60.4244 20.4436C60.9251 20.0264 61.7595 20.0264 62.1767 20.6105C62.5105 21.0277 71.105 31.2076 71.6891 47.9795C71.6057 48.5636 71.105 49.1477 70.354 49.2311Z" fill="#FF0000"></path><path d="M7.10515 49.2309C6.35417 49.2309 5.85352 48.6468 5.85352 47.8958C6.43761 31.1239 14.9487 20.944 15.3659 20.5268C15.7831 20.0261 16.6175 19.9427 17.1182 20.3599C17.6188 20.7771 17.7023 21.6115 17.2851 22.1122C17.1182 22.2791 8.94087 32.1252 8.44022 47.8958C8.35678 48.6468 7.77268 49.2309 7.10515 49.2309Z" fill="#FF0000"></path></svg>