<svg xmlns="http://www.w3.org/2000/svg" width="88" height="87" viewBox="0 0 88 87" fill="none"><path d="M14.6895 48.4459C14.4964 48.4459 14.3033 48.3976 14.1585 48.3494L1.36434 42.559C0.9781 42.366 0.688422 42.0282 0.640142 41.594C0.543583 41.1597 0.688422 40.7254 0.9781 40.4359C10.3444 31.0748 18.9864 25.188 26.0353 23.4026C26.7112 23.2096 27.4354 23.6439 27.6285 24.3194C27.8216 24.995 27.3871 25.7188 26.7112 25.9118C20.4348 27.5041 12.7101 32.7154 4.21284 40.9184L15.2689 45.9367C15.9448 46.2262 16.2345 46.9983 15.8965 47.6738C15.6551 48.1564 15.1723 48.4459 14.6895 48.4459Z" fill="#F90D1B"></path><path d="M45.5884 86.2762C45.4919 86.2762 45.4436 86.2762 45.347 86.2762C44.9125 86.1797 44.5746 85.9384 44.3815 85.5524L38.6362 72.8136C38.3465 72.1381 38.6362 71.3661 39.2638 71.0765C39.9397 70.787 40.7122 71.0765 41.0019 71.7038L45.9747 82.6572C54.1339 74.2612 59.2999 66.5408 60.9414 60.3161C61.1345 59.6406 61.8587 59.2063 62.5346 59.3993C63.2105 59.5923 63.645 60.3161 63.4519 60.9917C61.569 67.9883 55.7272 76.5774 46.4575 85.8419C46.2644 86.1314 45.9264 86.2762 45.5884 86.2762Z" fill="#F90D1B"></path><path d="M37.3323 68.0849C36.9944 68.0849 36.6564 67.9401 36.415 67.6988L19.2757 50.5691C18.9378 50.2313 18.7929 49.7005 18.9378 49.218C22.7519 37.8303 28.3523 28.3727 35.5943 21.183C55.051 1.73711 84.405 0.0482529 85.6603 0C86.0465 0 86.3845 0.0965058 86.6259 0.386023C86.8673 0.627288 87.0121 1.01331 87.0121 1.35108C86.9638 2.60566 85.274 31.9434 65.8173 51.3894C58.5754 58.6273 49.1608 64.2246 37.7668 68.0366C37.622 68.0849 37.4772 68.0849 37.3323 68.0849ZM21.6897 49.3145L37.6703 65.2862C48.3401 61.619 57.1753 56.3111 63.9344 49.5557C80.253 33.2463 83.6325 8.97504 84.2602 2.75042C78.0321 3.3777 53.6991 6.75541 37.4289 23.0649C30.6697 29.8203 25.359 38.6506 21.6897 49.3145Z" fill="#F90D1B"></path><path d="M32.1664 72.8137C31.8285 72.8137 31.4905 72.6689 31.2491 72.4277L14.5926 55.7804C14.0616 55.2496 14.0616 54.4293 14.5926 53.9468C15.1237 53.416 15.9445 53.416 16.4273 53.9468L33.0838 70.594C33.6148 71.1248 33.6148 71.9451 33.0838 72.4277C32.8424 72.7172 32.5044 72.8137 32.1664 72.8137Z" fill="#F90D1B"></path><path d="M54.6643 40.7255C50.0295 40.7255 46.2637 36.9618 46.2637 32.3295C46.2637 27.6972 50.0295 23.9335 54.6643 23.9335C55.3885 23.9335 55.9679 24.5125 55.9679 25.2363C55.9679 25.9601 55.3885 26.5391 54.6643 26.5391C51.4779 26.5391 48.8708 29.1448 48.8708 32.3295C48.8708 35.5142 51.4779 38.1198 54.6643 38.1198C57.8508 38.1198 60.4579 35.5142 60.4579 32.3295C60.4579 31.6057 61.0373 31.0267 61.7615 31.0267C62.4856 31.0267 63.065 31.6057 63.065 32.3295C63.065 36.9618 59.2992 40.7255 54.6643 40.7255Z" fill="#F90D1B"></path><path d="M1.31562 75.2746C0.977664 75.2746 0.639706 75.1298 0.398307 74.8886C-0.132769 74.3578 -0.132769 73.5375 0.398307 73.0549L12.1303 61.3295C12.6613 60.7987 13.4821 60.7987 13.9649 61.3295C14.496 61.8603 14.496 62.6806 13.9649 63.1631L2.23294 74.8886C1.99154 75.1781 1.65358 75.2746 1.31562 75.2746Z" fill="#F90D1B"></path><path d="M13.048 87C12.7101 87 12.3721 86.8553 12.1307 86.614C11.5997 86.0832 11.5997 85.2629 12.1307 84.7804L23.8627 73.0549C24.3938 72.5242 25.2145 72.5242 25.6973 73.0549C26.2284 73.5857 26.2284 74.406 25.6973 74.8886L13.9654 86.614C13.724 86.8553 13.386 87 13.048 87Z" fill="#F90D1B"></path><path d="M11.7922 76.5291C11.4542 76.5291 11.1163 76.3844 10.8749 76.1431C10.3438 75.6123 10.3438 74.792 10.8749 74.3095L17.972 67.2163C18.5031 66.6855 19.3238 66.6855 19.8066 67.2163C20.3377 67.7471 20.3377 68.5674 19.8066 69.0499L12.7095 76.1431C12.4198 76.3844 12.1301 76.5291 11.7922 76.5291Z" fill="#F90D1B"></path><path d="M80.9768 24.5125C80.6388 24.5125 80.3009 24.3677 80.0595 24.1265L67.1688 11.2429C66.6377 10.7121 66.6377 9.89185 67.1688 9.40932C67.6999 8.87853 68.5206 8.87853 69.0034 9.40932L81.8941 22.2928C82.4252 22.8236 82.4252 23.6439 81.8941 24.1265C81.6527 24.3677 81.3148 24.5125 80.9768 24.5125Z" fill="#F90D1B"></path></svg>