<svg xmlns="http://www.w3.org/2000/svg" width="52" height="74" viewBox="0 0 52 74" fill="none"><path d="M32.8754 74.0002C31.8001 74.0002 30.7248 73.7685 29.6495 73.3822C19.0501 69.0566 5.68567 60.7142 1.92212 45.3426C-0.228484 36.3822 1.92212 29.1985 2.15254 28.5033C2.38296 27.7309 4.68718 19.7747 13.7504 18.0754C14.3649 17.9209 14.9793 18.3843 15.133 19.0023C15.2866 19.6202 14.8257 20.2382 14.2113 20.3927C6.37694 21.8603 4.45676 28.8123 4.37995 29.1213V29.1985C4.37995 29.2758 2.15254 36.2278 4.22633 44.8791C7.0682 56.3885 15.901 65.2716 30.5712 71.1422C34.1043 72.5326 37.3302 70.3697 38.8664 68.9793C44.7805 63.7267 48.3137 53.8394 48.5441 41.7893C48.5441 41.7893 48.4673 36.8457 45.3182 34.3739C43.398 32.9062 40.7866 32.5973 37.4071 33.3697C36.7926 33.5242 36.1781 33.138 36.0245 32.52C35.8709 31.9021 36.2549 31.2841 36.8694 31.1296C41.017 30.1255 44.3197 30.5889 46.7775 32.52C50.7715 35.687 50.8483 41.4804 50.8483 41.7893C50.4643 59.1693 44.1661 67.3572 40.4025 70.6787C38.0215 72.9188 35.4101 74.0002 32.8754 74.0002Z" fill="#FF0000"></path><path d="M19.2805 29.1213H19.2037C18.5893 29.044 18.0516 28.5033 18.1284 27.8854C19.2805 14.5221 28.3438 10.4282 28.7278 10.2737C29.3423 10.042 30.0336 10.2737 30.264 10.8916C30.4944 11.5096 30.264 12.2048 29.6495 12.4365C29.3423 12.591 21.5079 16.2215 20.4326 28.1171C20.3558 28.6578 19.895 29.1213 19.2805 29.1213Z" fill="#FF0000"></path><path d="M19.204 13.7495C19.1272 13.7495 18.9736 13.7495 18.8968 13.6723C18.4359 13.5178 18.1287 13.2088 18.0519 12.7454C17.207 7.41551 13.6739 1.85392 13.5971 1.77668C13.213 1.23597 13.3666 0.540767 13.9811 0.154546C14.5188 -0.154431 15.21 5.75094e-05 15.5941 0.540767C15.7477 0.7725 18.5895 5.25267 19.8953 10.1963C21.4314 8.72866 23.966 6.48857 26.2703 5.40716C26.8847 5.17542 27.576 5.40716 27.8064 5.94787C28.0368 6.56582 27.8064 7.26102 27.2688 7.49275C23.966 9.03764 20.1257 13.2088 20.0489 13.2861C19.8953 13.6723 19.588 13.7495 19.204 13.7495Z" fill="#FF0000"></path><path d="M13.6734 29.1211C13.5198 29.1211 13.443 29.1211 13.2894 29.0439C12.6749 28.8121 12.3677 28.1942 12.5213 27.5762C12.5981 27.4217 15.9777 16.1441 8.98819 4.48019C8.68097 4.01673 8.91139 3.24428 9.44904 2.93531C9.98669 2.62633 10.7548 2.78082 11.062 3.32153C18.5891 15.9896 14.9792 27.808 14.8255 28.3487C14.6719 28.8121 14.2111 29.1211 13.6734 29.1211Z" fill="#FF0000"></path><path d="M21.9689 36.1503C21.6617 36.1503 21.3544 36.0731 21.124 35.8414C20.6632 35.3779 20.6632 34.6827 21.124 34.2192C21.3544 33.9875 26.1165 28.8894 20.5096 21.8601C20.1255 21.3194 20.2023 20.6242 20.6632 20.238C21.2008 19.8518 21.8921 19.929 22.2761 20.3925C29.2656 29.1211 22.8138 35.7641 22.737 35.8414C22.5834 36.0731 22.2761 36.1503 21.9689 36.1503Z" fill="#FF0000"></path><path d="M26.2701 39.4718C26.0397 39.4718 25.8093 39.3946 25.5788 39.2401C25.0412 38.8538 24.9644 38.1586 25.3484 37.6179C25.4252 37.5407 31.1858 29.43 27.8831 23.2505C27.7294 22.9415 27.7294 22.4781 27.8831 22.1691C28.0367 21.8601 28.4207 21.6284 28.8047 21.5511C29.4192 21.4739 43.1677 20.3925 49.8499 27.19C50.3108 27.6534 50.3108 28.4259 49.8499 28.8121C49.3891 29.2756 48.621 29.2756 48.237 28.8121C43.5517 24.0229 34.4117 23.714 30.6481 23.7912C33.0291 30.9749 27.499 38.6994 27.1918 39.0083C26.9614 39.3173 26.6541 39.4718 26.2701 39.4718Z" fill="#FF0000"></path><path d="M50.8486 24.0231C50.6181 24.0231 50.4645 23.9459 50.2341 23.8687C43.5519 19.9292 35.2567 18.0753 28.2672 18.8478C27.6528 18.925 27.0383 18.4616 26.9615 17.8436C26.8847 17.2257 27.3455 16.6077 27.96 16.5305C35.4871 15.6808 44.2431 17.6891 51.3862 21.7831C51.9238 22.092 52.1543 22.7872 51.847 23.4052C51.6166 23.7914 51.2326 24.0231 50.8486 24.0231Z" fill="#FF0000"></path><path d="M44.8571 33.524C44.7803 33.524 44.7803 33.524 44.7035 33.524C44.0891 33.4467 43.6282 32.8288 43.705 32.2108C43.705 32.2108 43.8586 31.1294 43.3978 30.1252C43.1674 29.5073 43.4746 28.8121 44.0891 28.5804C44.7035 28.3486 45.3948 28.6576 45.6252 29.2756C46.2397 30.8204 46.086 32.3653 46.0092 32.5198C45.9324 33.0605 45.3948 33.524 44.8571 33.524Z" fill="#FF0000"></path><path d="M16.9762 66.1211C16.5922 66.1211 16.285 65.9666 16.0545 65.6577C14.5184 63.5721 13.059 58.474 18.0515 54.4573C18.5892 54.071 19.2804 54.1483 19.6645 54.6117C20.0485 55.1524 19.9717 55.8476 19.5109 56.2339C14.9024 59.8644 17.8211 64.0355 17.9747 64.2673C18.3587 64.808 18.2051 65.5032 17.6675 65.8894C17.4371 66.0439 17.2066 66.1211 16.9762 66.1211Z" fill="#FF0000"></path></svg>