<svg xmlns="http://www.w3.org/2000/svg" width="272" height="80" viewBox="0 0 272 80" fill="none"><path d="M162.065 31.4723C161.759 32.7998 161.231 33.9613 160.535 34.9846C159.812 35.9802 158.894 36.7822 157.726 37.363C156.557 37.9438 155.166 38.248 153.469 38.248C151.8 38.248 150.382 37.9438 149.269 37.363C148.156 36.7822 147.211 35.9802 146.515 34.9846C145.792 33.989 145.291 32.7998 144.985 31.4723C144.679 30.1448 144.54 28.7067 144.54 27.1856V7.41162H148.379V26.7984C148.379 27.8217 148.462 28.8173 148.601 29.7576C148.768 30.6979 149.019 31.5553 149.408 32.2743C149.798 33.021 150.326 33.6018 150.994 34.0443C151.661 34.4868 152.524 34.708 153.525 34.708C154.554 34.708 155.389 34.4868 156.057 34.0443C156.724 33.6018 157.225 33.021 157.614 32.2743C158.004 31.5276 158.282 30.6979 158.421 29.7576C158.588 28.8173 158.644 27.8217 158.644 26.7984V7.41162H162.482V27.1856C162.538 28.7067 162.399 30.1448 162.065 31.4723Z" fill="#EE101F"></path><path d="M182.038 37.5013L176.92 24.0882H173.415V37.5289H169.659V7.41162H177.476C178.589 7.41162 179.646 7.5499 180.619 7.85412C181.593 8.15833 182.483 8.62848 183.206 9.26457C183.957 9.92831 184.542 10.758 184.959 11.8089C185.376 12.8598 185.599 14.132 185.599 15.5978C185.599 16.8146 185.432 17.8932 185.126 18.7782C184.82 19.6909 184.402 20.4652 183.902 21.1013C183.401 21.7374 182.845 22.2352 182.233 22.6224C181.621 22.9819 181.037 23.2308 180.48 23.3414L186.155 37.5013H182.038ZM181.788 15.7637C181.788 14.7404 181.649 13.9108 181.37 13.247C181.092 12.5833 180.703 12.0578 180.258 11.6706C179.813 11.2835 179.284 11.0069 178.672 10.841C178.06 10.675 177.476 10.5921 176.864 10.5921H173.387V21.1013H176.947C178.394 21.1013 179.562 20.6312 180.452 19.7185C181.343 18.7782 181.788 17.4784 181.788 15.7637Z" fill="#EE101F"></path><path d="M200.898 6.69287C202.512 6.69287 203.958 6.99709 205.21 7.57786C206.462 8.18629 207.491 9.07128 208.326 10.2881L205.933 12.8878C205.293 11.9752 204.57 11.3114 203.763 10.8413C202.929 10.3988 202.039 10.1499 201.065 10.1499C199.897 10.1499 198.895 10.4817 198.061 11.1178C197.226 11.7816 196.503 12.6666 195.947 13.7728C195.363 14.879 194.945 16.2065 194.695 17.6723C194.417 19.1657 194.278 20.7144 194.278 22.3738C194.278 24.1161 194.417 25.7202 194.723 27.1859C195.029 28.6793 195.474 29.9515 196.058 31.0578C196.642 32.1363 197.365 32.9937 198.256 33.6298C199.146 34.2658 200.175 34.5701 201.371 34.5701C202.957 34.5701 204.181 34.2382 205.015 33.5468V24.2821H201.037V20.9633H208.743V35.621C207.853 36.3677 206.823 36.9485 205.655 37.391C204.459 37.8335 203.012 38.0547 201.316 38.0547C199.563 38.0547 198.033 37.6675 196.642 36.9208C195.279 36.1741 194.111 35.1232 193.165 33.7404C192.219 32.3852 191.496 30.7259 190.995 28.8176C190.494 26.8817 190.244 24.7522 190.244 22.4014C190.244 20.1337 190.494 18.0318 190.967 16.1235C191.44 14.2153 192.164 12.5559 193.054 11.1455C193.972 9.73502 195.084 8.65644 196.42 7.85442C197.727 7.08005 199.229 6.69287 200.898 6.69287Z" fill="#EE101F"></path><path d="M215.53 37.5013V7.41162H228.271V10.8133H219.258V20.2993H227.687V23.4797H219.258V34.0719H228.716V37.5289H215.53V37.5013Z" fill="#EE101F"></path><path d="M247.938 37.5013L238.285 14.1597H238.146V37.5013H234.585V7.41162H239.203L248.745 30.7809H248.884V7.41162H252.444V37.5013H247.938Z" fill="#EE101F"></path><path d="M266.242 10.675V37.5013H262.403V10.675H256.617V7.41162H272V10.675H266.242Z" fill="#EE101F"></path><path d="M157.503 74.8922C156.307 75.6112 154.86 75.9708 153.136 75.9708C151.466 75.9708 149.937 75.5836 148.601 74.7816C147.266 73.9796 146.126 72.8733 145.235 71.4629C144.317 70.0524 143.622 68.3931 143.149 66.4571C142.676 64.5489 142.426 62.447 142.426 60.1792C142.426 57.9115 142.676 55.8096 143.177 53.8737C143.678 51.9378 144.401 50.2784 145.319 48.868C146.237 47.4575 147.377 46.3789 148.685 45.5769C150.02 44.7749 151.494 44.3877 153.163 44.3877C154.693 44.3877 156.112 44.6919 157.392 45.2727C158.671 45.8811 159.728 46.7661 160.563 47.983L158.171 50.5826C157.531 49.67 156.807 49.0062 156.001 48.5637C155.166 48.1212 154.304 47.9 153.358 47.9C152.19 47.9 151.188 48.2319 150.326 48.868C149.464 49.5317 148.768 50.389 148.212 51.4953C147.655 52.6015 147.238 53.9013 146.96 55.3948C146.682 56.8882 146.543 58.4646 146.543 60.1239C146.543 61.7833 146.682 63.3597 146.96 64.8531C147.238 66.3189 147.683 67.6187 148.24 68.7526C148.796 69.8588 149.519 70.7715 150.409 71.4076C151.272 72.0713 152.301 72.3755 153.469 72.3755C154.526 72.3755 155.444 72.0989 156.279 71.5182C157.086 70.9651 157.725 70.246 158.226 69.444L160.535 71.9607C159.7 73.2052 158.727 74.1455 157.503 74.8922Z" fill="#EE101F"></path><path d="M178.004 75.2518L176.307 68.1995H167.545L165.792 75.2518H161.898L169.52 45.1621H174.611L182.038 75.2518H178.004ZM172.051 48.7021H171.884L168.046 65.1574H175.779L172.051 48.7021Z" fill="#EE101F"></path><path d="M198.951 75.2516L193.833 61.8108H190.328V75.2516H186.572V45.1343H194.417C195.53 45.1343 196.587 45.2726 197.56 45.5768C198.534 45.881 199.424 46.3511 200.147 46.9872C200.898 47.651 201.482 48.4806 201.9 49.5316C202.317 50.5825 202.54 51.8547 202.54 53.3204C202.54 54.5373 202.373 55.6159 202.067 56.5009C201.761 57.4135 201.343 58.1879 200.843 58.824C200.342 59.4601 199.786 59.9579 199.174 60.345C198.562 60.7046 197.977 60.9535 197.421 61.0641L203.096 75.2239H198.951V75.2516ZM198.701 53.4864C198.701 52.4631 198.562 51.6334 198.283 50.9697C198.005 50.3059 197.616 49.7805 197.171 49.3933C196.726 49.0061 196.197 48.7296 195.585 48.5636C194.973 48.3977 194.389 48.3147 193.777 48.3147H190.3V58.824H193.86C195.307 58.824 196.475 58.3538 197.365 57.4412C198.256 56.5285 198.701 55.201 198.701 53.4864Z" fill="#EE101F"></path><path d="M208.437 75.2516V45.1343H221.177V48.536H212.165V58.0219H220.593V61.2024H212.165V71.7946H221.623V75.2516H208.437Z" fill="#EE101F"></path><path d="M0 68.0059H2.14195L4.20045 73.6753H4.22827L6.28677 68.0059H8.34527L5.25752 75.7772H3.1712L0 68.0059Z" fill="#EE101F"></path><path d="M16.3567 71.9885C16.3567 72.0715 16.3567 72.1544 16.3567 72.2374C16.3567 72.3204 16.3567 72.4033 16.3289 72.4863H10.3759C10.4038 72.7629 10.4594 73.0118 10.5985 73.2607C10.7097 73.4819 10.8767 73.7032 11.0992 73.8691C11.2939 74.0351 11.5443 74.1733 11.7946 74.2563C12.045 74.3669 12.3232 74.3946 12.6013 74.3946C13.1021 74.3946 13.4915 74.3116 13.8531 74.118C14.1869 73.9521 14.4651 73.7032 14.6877 73.3713L15.9951 74.3946C15.2162 75.4455 14.1035 75.9433 12.6292 75.9433C12.0172 75.9433 11.4608 75.8603 10.9601 75.6668C10.4594 75.4732 10.0143 75.2243 9.62487 74.8647C9.26324 74.5329 8.95724 74.0904 8.7347 73.5926C8.51216 73.0947 8.42871 72.514 8.42871 71.8779C8.42871 71.2418 8.53998 70.6887 8.7347 70.1632C8.95724 69.6378 9.23542 69.2229 9.59705 68.8634C9.95868 68.5039 10.4038 68.2273 10.9045 68.0337C11.4052 67.8401 11.9615 67.7295 12.5457 67.7295C13.1021 67.7295 13.6028 67.8125 14.0479 68.0061C14.5208 68.172 14.9102 68.4485 15.244 68.8081C15.5778 69.1676 15.856 69.6101 16.0229 70.1079C16.2454 70.6887 16.3567 71.2971 16.3567 71.9885ZM14.3817 71.1312C14.3817 70.8823 14.3538 70.6334 14.2704 70.4121C14.1869 70.1909 14.0757 69.9973 13.9366 69.8037C13.7975 69.6378 13.6028 69.4995 13.3524 69.3888C13.1299 69.2782 12.8517 69.2229 12.5179 69.2229C11.9337 69.2229 11.433 69.3888 11.0157 69.7484C10.5985 70.1079 10.3759 70.5504 10.3481 71.1035H14.3817V71.1312Z" fill="#EE101F"></path><path d="M17.5806 68.0059H19.4443V69.2504H19.4722C19.6391 68.8632 19.9451 68.5314 20.3901 68.2272C20.8074 67.9229 21.3359 67.7847 21.9201 67.7847C22.4208 67.7847 22.8659 67.8676 23.2275 68.0612C23.5892 68.2272 23.8951 68.4761 24.1177 68.7526C24.3402 69.0568 24.535 69.3887 24.6184 69.7482C24.7297 70.1354 24.7853 70.5226 24.7853 70.9098V75.7772H22.8381V71.4629C22.8381 71.2417 22.8103 70.9928 22.7824 70.7439C22.7546 70.4949 22.6712 70.2737 22.5599 70.0801C22.4486 69.8865 22.3095 69.7206 22.1148 69.5823C21.9201 69.444 21.6697 69.3887 21.3638 69.3887C21.0578 69.3887 20.7796 69.444 20.557 69.5823C20.3345 69.6929 20.1398 69.8589 20.0007 70.0525C19.8616 70.246 19.7503 70.4673 19.6669 70.7162C19.5834 70.9651 19.5556 71.214 19.5556 71.4906V75.7772H17.6084V68.0059H17.5806Z" fill="#EE101F"></path><path d="M33.8816 71.9885C33.8816 72.0715 33.8816 72.1544 33.8816 72.2374C33.8816 72.3204 33.8816 72.4033 33.8538 72.4863H27.9008C27.9287 72.7629 27.9843 73.0118 28.1234 73.2607C28.2347 73.4819 28.4016 73.7032 28.6241 73.8691C28.8188 74.0351 29.0692 74.1733 29.3195 74.2563C29.5699 74.3669 29.8481 74.3946 30.1262 74.3946C30.627 74.3946 31.0164 74.3116 31.378 74.118C31.7118 73.9521 31.99 73.7032 32.2126 73.3713L33.52 74.3946C32.7411 75.4455 31.6284 75.9433 30.1541 75.9433C29.5421 75.9433 28.9857 75.8603 28.485 75.6668C27.9843 75.4732 27.5392 75.2243 27.1498 74.8647C26.7881 74.5329 26.4821 74.0904 26.2596 73.5926C26.0371 73.0947 25.9536 72.514 25.9536 71.8779C25.9536 71.2418 26.0649 70.6887 26.2596 70.1632C26.4821 69.6378 26.7603 69.2229 27.1219 68.8634C27.4836 68.5039 27.9287 68.2273 28.4294 68.0337C28.9301 67.8401 29.4864 67.7295 30.0706 67.7295C30.627 67.7295 31.1277 67.8125 31.5728 68.0061C32.0457 68.172 32.4351 68.4485 32.7689 68.8081C33.1027 69.1676 33.3809 69.6101 33.5478 70.1079C33.7982 70.6887 33.8816 71.2971 33.8816 71.9885ZM31.9344 71.1312C31.9344 70.8823 31.9066 70.6334 31.8231 70.4121C31.7397 70.1909 31.6284 69.9973 31.4893 69.8037C31.3502 69.6378 31.1555 69.4995 30.9051 69.3888C30.6826 69.2782 30.4044 69.2229 30.0706 69.2229C29.4864 69.2229 28.9857 69.3888 28.5685 69.7484C28.1512 70.1079 27.9287 70.5504 27.9008 71.1035H31.9344V71.1312Z" fill="#EE101F"></path><path d="M44.4526 67.7847C44.9534 67.7847 45.3984 67.8676 45.7601 68.0612C46.1217 68.2272 46.4277 68.4761 46.6502 68.7526C46.8728 69.0568 47.0675 69.3887 47.1509 69.7482C47.2622 70.1354 47.3179 70.5226 47.3179 70.9098V75.7772H45.3706V71.4629C45.3706 71.2417 45.3428 70.9928 45.315 70.7439C45.2872 70.4949 45.2037 70.2737 45.0924 70.0801C44.9812 69.8865 44.8421 69.7206 44.6474 69.5823C44.4526 69.444 44.2023 69.3887 43.8963 69.3887C43.5903 69.3887 43.3399 69.444 43.1174 69.5823C42.8949 69.7206 42.728 69.8865 42.5889 70.0801C42.4498 70.2737 42.3385 70.5226 42.2829 70.7715C42.2272 71.0204 42.1716 71.2693 42.1716 71.5182V75.7772H40.2244V71.0757C40.2244 70.5779 40.1131 70.1907 39.8627 69.8589C39.6402 69.527 39.2508 69.3887 38.75 69.3887C38.4441 69.3887 38.1937 69.444 37.9712 69.5823C37.7486 69.6929 37.5817 69.8589 37.4426 70.0525C37.3035 70.246 37.1923 70.4673 37.1366 70.7162C37.0532 70.9651 37.0254 71.214 37.0254 71.4906V75.7772H35.0781V68.0059H36.9419V69.2504H36.9697C37.0532 69.0568 37.1644 68.8632 37.3313 68.6973C37.4704 68.5314 37.6652 68.3654 37.8599 68.2272C38.0546 68.0889 38.305 67.9783 38.5553 67.8953C38.8057 67.8123 39.1117 67.7847 39.4177 67.7847C40.0296 67.7847 40.5304 67.9229 40.9198 68.1995C41.3093 68.4761 41.6431 68.8356 41.8378 69.2781C42.0881 68.8079 42.4498 68.4484 42.867 68.1718C43.3678 67.8953 43.8685 67.7847 44.4526 67.7847Z" fill="#EE101F"></path><path d="M56.4417 71.9885C56.4417 72.0715 56.4417 72.1544 56.4417 72.2374C56.4417 72.3204 56.4417 72.4033 56.4139 72.4863H50.4609C50.4887 72.7629 50.5444 73.0118 50.6834 73.2607C50.7947 73.4819 50.9616 73.7032 51.1842 73.8691C51.3789 74.0351 51.6292 74.1733 51.8796 74.2563C52.13 74.3669 52.4081 74.3946 52.6863 74.3946C53.187 74.3946 53.5765 74.3116 53.9381 74.118C54.2719 73.9521 54.5501 73.7032 54.7726 73.3713L56.08 74.3946C55.3012 75.4455 54.1885 75.9433 52.7141 75.9433C52.1021 75.9433 51.5458 75.8603 51.0451 75.6668C50.5444 75.4732 50.0993 75.2243 49.7098 74.8647C49.3482 74.5329 49.0422 74.0904 48.8197 73.5926C48.5971 73.0947 48.5137 72.514 48.5137 71.8779C48.5137 71.2418 48.6249 70.6887 48.8197 70.1632C49.0422 69.6378 49.3204 69.2229 49.682 68.8634C50.0436 68.5039 50.4887 68.2273 50.9894 68.0337C51.4902 67.8401 52.0465 67.7295 52.6307 67.7295C53.187 67.7295 53.6877 67.8125 54.1328 68.0061C54.6057 68.172 54.9952 68.4485 55.329 68.8081C55.6628 69.1676 55.941 69.6101 56.1079 70.1079C56.3304 70.6887 56.4417 71.2971 56.4417 71.9885ZM54.4944 71.1312C54.4944 70.8823 54.4666 70.6334 54.3832 70.4121C54.2997 70.1909 54.1885 69.9973 54.0494 69.8037C53.9103 69.6378 53.7156 69.4995 53.4652 69.3888C53.2427 69.2782 52.9645 69.2229 52.6307 69.2229C52.0465 69.2229 51.5458 69.3888 51.1285 69.7484C50.7113 70.1079 50.4887 70.5504 50.4609 71.1035H54.4944V71.1312Z" fill="#EE101F"></path><path d="M57.666 68.0059H59.5298V69.3057H59.5576C59.7801 68.8632 60.0861 68.4761 60.4756 68.1995C60.865 67.9229 61.3101 67.7847 61.8386 67.7847C61.9221 67.7847 62.0055 67.7847 62.089 67.7847C62.1724 67.7847 62.2559 67.8123 62.3115 67.8123V69.5823C62.1724 69.5546 62.0612 69.527 61.9777 69.527C61.8943 69.527 61.783 69.4993 61.6995 69.4993C61.2545 69.4993 60.8928 69.5823 60.6147 69.7482C60.3365 69.9142 60.1418 70.1078 59.9749 70.329C59.8358 70.5503 59.7245 70.7992 59.6689 71.0204C59.6132 71.2693 59.5854 71.4352 59.5854 71.6012V75.7772H57.6382V68.0059H57.666Z" fill="#EE101F"></path><path d="M70.9068 68.0061V75.086C70.9068 75.7774 70.8233 76.4135 70.6564 76.9942C70.4895 77.575 70.2113 78.0452 69.8497 78.4323C69.4881 78.8195 69.0152 79.1237 68.4588 79.345C67.9025 79.5662 67.2348 79.6769 66.4838 79.6769C66.1778 79.6769 65.844 79.6492 65.4823 79.5939C65.1207 79.5386 64.7869 79.4556 64.4531 79.345C64.1193 79.2344 63.7855 79.0961 63.4795 78.9301C63.1735 78.7642 62.8953 78.5706 62.6449 78.377L63.7576 76.8836C64.1471 77.2431 64.5644 77.5197 65.0373 77.7133C65.5102 77.9069 66.0109 77.9898 66.4838 77.9898C66.9567 77.9898 67.3461 77.9345 67.6521 77.7963C67.9859 77.658 68.2363 77.4644 68.431 77.2431C68.6257 76.9942 68.7648 76.7177 68.8483 76.3858C68.9317 76.0539 68.9595 75.6944 68.9595 75.3072V74.7265H68.9317C68.6535 75.1136 68.2919 75.3902 67.8468 75.6114C67.4017 75.805 66.9289 75.9157 66.3725 75.9157C65.7883 75.9157 65.2598 75.805 64.7869 75.5838C64.314 75.3625 63.8967 75.086 63.5629 74.6988C63.2291 74.3393 62.9788 73.8968 62.784 73.399C62.5893 72.9012 62.5059 72.3757 62.5059 71.8226C62.5059 71.2695 62.5893 70.744 62.784 70.2462C62.9509 69.7484 63.2291 69.3059 63.5629 68.9464C63.8967 68.5868 64.2862 68.2826 64.7591 68.0614C65.232 67.8401 65.7605 67.7295 66.3447 67.7295C66.901 67.7295 67.4018 67.8401 67.9025 68.0614C68.3754 68.2826 68.7648 68.6421 69.043 69.1123H69.0708V67.9507H70.9068V68.0061ZM66.7341 69.3612C66.3725 69.3612 66.0665 69.4165 65.7883 69.5548C65.5102 69.6931 65.2876 69.859 65.0929 70.0802C64.8982 70.3015 64.7591 70.5504 64.6478 70.8546C64.5365 71.1588 64.4809 71.4907 64.4809 71.8226C64.4809 72.1268 64.5365 72.431 64.6478 72.7352C64.7591 73.0394 64.8982 73.2883 65.0929 73.5096C65.2876 73.7308 65.5102 73.9244 65.7883 74.0627C66.0665 74.201 66.3725 74.284 66.7341 74.284C67.0958 74.284 67.4296 74.2286 67.7077 74.0904C67.9859 73.9521 68.2363 73.7861 68.431 73.5372C68.6257 73.316 68.7926 73.0394 68.9039 72.7629C69.0152 72.4587 69.0708 72.1544 69.0708 71.8226C69.0708 71.4907 69.0152 71.1588 68.9039 70.8823C68.7926 70.5781 68.6535 70.3292 68.431 70.0802C68.2363 69.859 67.9859 69.6654 67.7077 69.5548C67.4296 69.4442 67.0958 69.3612 66.7341 69.3612Z" fill="#EE101F"></path><path d="M80.0589 71.9885C80.0589 72.0715 80.0589 72.1544 80.0589 72.2374C80.0589 72.3204 80.0589 72.4033 80.0311 72.4863H74.0781C74.1059 72.7629 74.1615 73.0118 74.3006 73.2607C74.4119 73.4819 74.5788 73.7032 74.8013 73.8691C74.9961 74.0351 75.2464 74.1733 75.4968 74.2563C75.7471 74.3669 76.0253 74.3946 76.3035 74.3946C76.8042 74.3946 77.1937 74.3116 77.5553 74.118C77.8891 73.9521 78.1673 73.7032 78.3898 73.3713L79.6972 74.3946C78.9183 75.4455 77.8056 75.9433 76.3313 75.9433C75.7193 75.9433 75.163 75.8603 74.6623 75.6668C74.1615 75.4732 73.7165 75.2243 73.327 74.8647C72.9654 74.5329 72.6594 74.0904 72.4369 73.5926C72.2143 73.0947 72.1309 72.514 72.1309 71.8779C72.1309 71.2418 72.2421 70.6887 72.4369 70.1632C72.6594 69.6378 72.9376 69.2229 73.2992 68.8634C73.6608 68.5039 74.1059 68.2273 74.6066 68.0337C75.1073 67.8401 75.6637 67.7295 76.2479 67.7295C76.8042 67.7295 77.3049 67.8125 77.75 68.0061C78.2229 68.172 78.6123 68.4485 78.9462 68.8081C79.28 69.1676 79.5582 69.6101 79.7251 70.1079C79.9754 70.6887 80.0589 71.2971 80.0589 71.9885ZM78.1116 71.1312C78.1116 70.8823 78.0838 70.6334 78.0004 70.4121C77.9169 70.1909 77.8056 69.9973 77.6666 69.8037C77.5275 69.6378 77.3327 69.4995 77.0824 69.3888C76.8598 69.2782 76.5817 69.2229 76.2479 69.2229C75.6637 69.2229 75.163 69.3888 74.7457 69.7484C74.3285 70.1079 74.1059 70.5504 74.0781 71.1035H78.1116V71.1312Z" fill="#EE101F"></path><path d="M81.3105 68.0059H83.1743V69.2504H83.2021C83.3691 68.8632 83.675 68.5314 84.1201 68.2272C84.5374 67.9229 85.0659 67.7847 85.6501 67.7847C86.1508 67.7847 86.5959 67.8676 86.9575 68.0612C87.3191 68.2272 87.6251 68.4761 87.8477 68.7526C88.0702 69.0568 88.2649 69.3887 88.3484 69.7482C88.4597 70.1354 88.5153 70.5226 88.5153 70.9098V75.7772H86.5681V71.4629C86.5681 71.2417 86.5402 70.9928 86.5124 70.7439C86.4846 70.4949 86.4012 70.2737 86.2899 70.0801C86.1786 69.8865 86.0395 69.7206 85.8448 69.5823C85.6501 69.444 85.3997 69.3887 85.0937 69.3887C84.7877 69.3887 84.5096 69.444 84.287 69.5823C84.0645 69.6929 83.8698 69.8589 83.7307 70.0525C83.5916 70.246 83.4803 70.4673 83.3969 70.7162C83.3134 70.9651 83.2856 71.214 83.2856 71.4906V75.7772H81.3384V68.0059H81.3105Z" fill="#EE101F"></path><path d="M95.4975 70.1631C95.3584 69.9418 95.108 69.7759 94.802 69.61C94.496 69.4717 94.19 69.3887 93.884 69.3887C93.5224 69.3887 93.2164 69.4717 92.9383 69.61C92.6601 69.7482 92.4375 69.9418 92.2706 70.1907C92.1037 70.4396 91.9646 70.6885 91.8812 70.9928C91.7977 71.297 91.7421 71.6012 91.7421 71.9054C91.7421 72.2096 91.7977 72.5138 91.8812 72.818C91.9646 73.1223 92.1037 73.3712 92.2984 73.6201C92.4932 73.869 92.7157 74.0626 92.9939 74.2008C93.2721 74.3391 93.6059 74.4221 93.9675 74.4221C94.2735 74.4221 94.5795 74.3668 94.8855 74.2562C95.1915 74.1455 95.4418 73.9519 95.6087 73.7307L96.8327 74.9752C96.4989 75.3347 96.0816 75.5836 95.5809 75.7772C95.0802 75.9708 94.5239 76.0538 93.9397 76.0538C93.3555 76.0538 92.827 75.9708 92.2984 75.7772C91.7699 75.5836 91.3248 75.3347 90.9354 74.9752C90.5459 74.6157 90.2399 74.1732 90.0174 73.6754C89.7949 73.1776 89.6836 72.5968 89.6836 71.9331C89.6836 71.297 89.7949 70.7439 90.0174 70.2184C90.2399 69.7206 90.5459 69.2781 90.9354 68.9186C91.3248 68.559 91.7699 68.2825 92.2706 68.0889C92.7713 67.8953 93.3277 67.7847 93.884 67.7847C94.4682 67.7847 95.0246 67.8953 95.5531 68.1165C96.0816 68.3378 96.5267 68.642 96.8327 69.0015L95.4975 70.1631Z" fill="#EE101F"></path><path d="M97.1943 65.3787C97.1943 65.0744 97.3056 64.7979 97.556 64.549C97.7785 64.3277 98.0845 64.1895 98.4461 64.1895C98.8078 64.1895 99.1138 64.3001 99.3641 64.5213C99.6145 64.7426 99.7257 65.0191 99.7257 65.351C99.7257 65.6829 99.6145 65.9594 99.3641 66.1807C99.1138 66.4019 98.8078 66.5126 98.4461 66.5126C98.0845 66.5126 97.7785 66.4019 97.556 66.153C97.3056 65.9594 97.1943 65.6829 97.1943 65.3787ZM97.4725 68.006H99.4197V75.7773H97.4725V68.006Z" fill="#EE101F"></path><path d="M106.013 74.8095H105.957C105.762 75.169 105.456 75.4455 105.011 75.6668C104.566 75.888 104.093 75.9987 103.537 75.9987C103.231 75.9987 102.897 75.971 102.563 75.888C102.23 75.8051 101.896 75.6668 101.618 75.4732C101.339 75.2796 101.089 75.0307 100.894 74.7265C100.7 74.4223 100.616 74.0351 100.616 73.5926C100.616 73.0118 100.783 72.5417 101.117 72.2098C101.451 71.8779 101.868 71.6014 102.397 71.4078C102.925 71.2142 103.509 71.1036 104.121 71.0482C104.761 70.9929 105.373 70.9653 105.985 70.9653V70.7717C105.985 70.2739 105.818 69.9144 105.456 69.6931C105.095 69.4719 104.678 69.3336 104.205 69.3336C103.787 69.3336 103.398 69.4165 103.009 69.5825C102.619 69.7484 102.313 69.9697 102.063 70.2186L101.061 69.0294C101.506 68.6145 102.007 68.3103 102.591 68.1167C103.175 67.9231 103.76 67.8125 104.372 67.8125C105.067 67.8125 105.651 67.9231 106.096 68.1167C106.541 68.3103 106.903 68.5592 107.153 68.8911C107.404 69.1953 107.598 69.5548 107.71 69.942C107.821 70.3292 107.877 70.7164 107.877 71.1036V75.7774H106.041V74.8095H106.013ZM105.985 72.2375H105.54C105.234 72.2375 104.9 72.2374 104.538 72.2651C104.177 72.2928 103.871 72.3481 103.565 72.431C103.259 72.514 103.036 72.6523 102.842 72.8182C102.647 72.9842 102.536 73.2054 102.536 73.5096C102.536 73.7032 102.563 73.8415 102.647 73.9798C102.73 74.0904 102.842 74.201 102.953 74.284C103.092 74.367 103.231 74.4223 103.398 74.4499C103.565 74.4776 103.732 74.5052 103.899 74.5052C104.566 74.5052 105.095 74.3393 105.429 73.9798C105.762 73.6202 105.957 73.1501 105.957 72.514V72.2375H105.985Z" fill="#EE101F"></path><path d="M54.1609 9.1543C49.0425 9.1543 44.2579 11.1455 40.6416 14.7131C37.0253 18.3084 35.0503 23.0929 35.0503 28.1539C35.0503 33.2426 37.0532 37.9994 40.6416 41.5947C44.2579 45.19 49.0703 47.1536 54.1609 47.1536C59.2516 47.1536 64.064 45.1623 67.6803 41.5947C71.2966 37.9994 73.2716 33.215 73.2716 28.1539C73.2716 23.0652 71.2966 18.3084 67.6803 14.7131C64.064 11.1455 59.2516 9.1543 54.1609 9.1543ZM54.1609 10.2329C64.1196 10.2329 72.1867 18.2531 72.1867 28.1539C72.1867 38.0548 64.1196 46.075 54.1609 46.075C44.2023 46.075 36.1352 38.0548 36.1352 28.1539C36.1352 18.2531 44.2023 10.2329 54.1609 10.2329Z" fill="#EE101F"></path><path d="M54.1609 4.48047C50.9341 4.48047 47.8185 5.11656 44.8699 6.33342C42.0325 7.52262 39.4733 9.23729 37.3035 11.4221C35.1059 13.6069 33.409 16.1236 32.1851 18.9445C30.9333 21.8761 30.3213 24.9735 30.3213 28.1816C30.3213 31.3897 30.9611 34.4872 32.1851 37.4187C33.3812 40.2396 35.1059 42.7839 37.3035 44.9411C39.5011 47.1259 42.0325 48.8129 44.8699 50.0298C47.8185 51.2743 50.9341 51.8828 54.1609 51.8828C57.3878 51.8828 60.5033 51.2467 63.452 50.0298C66.2894 48.8406 68.8486 47.1259 71.0184 44.9411C73.216 42.7563 74.9128 40.2396 76.1368 37.4187C77.3886 34.4872 78.0006 31.3897 78.0006 28.1816C78.0006 24.9735 77.3608 21.8761 76.1368 18.9445C74.9406 16.1236 73.216 13.5793 71.0184 11.4221C68.8208 9.23729 66.2894 7.55028 63.452 6.33342C60.4755 5.0889 57.3599 4.48047 54.1609 4.48047ZM54.1609 5.55905C66.7345 5.55905 76.9157 15.6811 76.9157 28.1816C76.9157 40.6821 66.7345 50.8042 54.1609 50.8042C41.5874 50.8042 31.4062 40.6821 31.4062 28.1816C31.4062 15.6811 41.5874 5.55905 54.1609 5.55905Z" fill="#EE101F"></path><path d="M54.1605 0C50.3495 0 46.622 0.74671 43.117 2.21248C39.751 3.62293 36.7189 5.66947 34.1041 8.24147C31.4892 10.8411 29.4586 13.828 28.0399 17.202C26.5655 20.6866 25.8145 24.3649 25.8145 28.1814C25.8145 31.9703 26.5655 35.6762 28.0399 39.1608C29.4586 42.5072 31.517 45.5217 34.1041 48.1213C36.7189 50.721 39.7232 52.7399 43.117 54.1503C46.622 55.6161 50.3217 56.3628 54.1605 56.3628C57.9715 56.3628 61.6991 55.6161 65.2041 54.1503C68.57 52.7399 71.6021 50.6933 74.217 48.1213C76.8318 45.5217 78.8625 42.5348 80.2812 39.1608C81.7555 35.6762 82.5066 31.9979 82.5066 28.1814C82.5066 24.3925 81.7555 20.6866 80.2812 17.202C78.8625 13.8556 76.804 10.8411 74.217 8.24147C71.6021 5.64181 68.5978 3.62293 65.2041 2.21248C61.6713 0.74671 57.9715 0 54.1605 0ZM54.1605 1.07858C69.2098 1.07858 81.3939 13.1919 81.3939 28.1537C81.3939 43.1156 69.2098 55.2289 54.1605 55.2289C39.1112 55.2289 26.9272 43.1156 26.9272 28.1537C26.9272 13.1919 39.1112 1.07858 54.1605 1.07858Z" fill="#EE101F"></path><path d="M52.1023 36.1461L46.9004 20.2163H50.5167L54.1051 31.417H54.133L57.7492 20.2163H61.3933L56.0802 36.1461H52.1023Z" fill="#EE101F"></path><path d="M241.094 76.5238C240.316 76.5238 239.648 75.9984 239.453 75.2516L235.976 61.2301H222.818V57.8561H237.311C238.09 57.8561 238.758 58.3815 238.953 59.1282L241.094 67.7292L246.519 45.4939C246.714 44.7471 247.381 44.2217 248.132 44.2217C248.911 44.2217 249.579 44.7195 249.774 45.4662L253.223 58.4645H270.943V61.8385H251.943C251.164 61.8385 250.497 61.3131 250.302 60.594L248.244 52.7674L242.764 75.224C242.569 75.9984 241.873 76.5238 241.094 76.5238Z" fill="#EE101F"></path><path d="M125.874 3.18066H124.65V79.4281H125.874V3.18066Z" fill="#EE101F"></path></svg>