<svg xmlns="http://www.w3.org/2000/svg" width="22" height="21" viewBox="0 0 22 21" fill="none"><path fill-rule="evenodd" clip-rule="evenodd" d="M10.8245 0C4.85815 0 0 4.704 0 10.5C0 16.296 4.85815 21 10.8245 21C16.7905 21 21.6487 16.296 21.6487 10.5C21.6487 4.704 16.7905 0 10.8245 0ZM17.2168 12.936C17.2168 14.952 15.5122 16.632 13.3813 16.632H8.35278C6.22192 16.632 4.51733 14.952 4.51733 12.936V8.064C4.51733 6.048 6.22192 4.368 8.35278 4.368H13.3813C15.5122 4.368 17.2168 6.048 17.2168 8.064V12.936ZM13.3813 5.46H8.35254C6.90381 5.46 5.71045 6.636 5.71045 7.98V12.852C5.71045 14.28 6.90381 15.372 8.35254 15.372H13.3813C14.8303 15.372 16.0234 14.196 16.0234 12.852V8.064C16.0234 6.636 14.8303 5.46 13.3813 5.46ZM14.2336 7.98C13.8076 7.98 13.4666 7.644 13.4666 7.224C13.4666 6.804 13.8076 6.468 14.2336 6.468C14.6599 6.468 15.0007 6.804 15.0007 7.224C14.9155 7.644 14.5747 7.98 14.2336 7.98ZM10.9097 13.524C9.20508 13.524 7.7561 12.18 7.7561 10.5C7.7561 8.82 9.11987 7.476 10.9097 7.476C12.6995 7.476 14.0632 8.82 14.0632 10.5C14.0632 12.18 12.6143 13.524 10.9097 13.524ZM10.9097 8.568C9.80176 8.568 8.94946 9.408 8.94946 10.5C8.94946 11.592 9.88696 12.432 10.9097 12.432C12.0178 12.432 12.8701 11.592 12.8701 10.5C12.8701 9.408 12.0178 8.568 10.9097 8.568Z" fill="white"></path></svg>