<svg xmlns="http://www.w3.org/2000/svg" width="22" height="21" viewBox="0 0 22 21" fill="none"><path d="M11.1513 0C5.1851 0 0.326904 4.704 0.326904 10.5C0.326904 16.296 5.1851 21 11.1513 21C17.1175 21 21.9757 16.296 21.9757 10.5C21.9757 4.704 17.1175 0 11.1513 0ZM8.67959 15.12H6.5488V8.568H8.67959V15.12ZM7.65681 7.644C6.97496 7.644 6.46357 7.14 6.46357 6.468C6.46357 5.796 6.97496 5.292 7.65681 5.292C8.33867 5.292 8.85004 5.796 8.85004 6.468C8.85004 7.14 8.33867 7.644 7.65681 7.644ZM16.5209 15.12H14.3901V11.928C14.3901 11.172 14.3901 10.164 13.2821 10.164C12.1741 10.164 12.0036 11.004 12.0036 11.844V15.12H9.95806V8.568H12.0036V9.492C12.2593 8.988 12.9412 8.4 13.9639 8.4C16.0947 8.4 16.4357 9.744 16.4357 11.508L16.5209 15.12Z" fill="white"></path></svg>