<svg xmlns="http://www.w3.org/2000/svg" width="140" height="111" viewBox="0 0 140 111" fill="none"><path d="M19.7841 85.0092C19.113 84.147 18.2272 83.4734 17.1534 82.9615C16.0662 82.4495 15.0193 82.207 14.0126 82.207C13.4892 82.207 12.9657 82.2475 12.4288 82.3418C11.8919 82.4361 11.4087 82.6112 10.9792 82.8672C10.5497 83.1231 10.1873 83.4599 9.90548 83.8776C9.61019 84.2952 9.47597 84.8206 9.47597 85.4673C9.47597 86.0197 9.59677 86.4777 9.82495 86.8549C10.0531 87.2187 10.3887 87.542 10.8316 87.8249C11.2745 88.1078 11.798 88.3503 12.4154 88.5794C13.0328 88.8084 13.7173 89.0509 14.4824 89.2934C15.583 89.6571 16.7239 90.0748 17.9184 90.5193C19.113 90.9639 20.2002 91.5567 21.18 92.2977C22.1598 93.0386 22.9651 93.9413 23.6094 95.0325C24.2537 96.1238 24.5758 97.4844 24.5758 99.1011C24.5758 100.974 24.2268 102.59 23.5423 103.951C22.8578 105.312 21.9316 106.443 20.7639 107.333C19.5962 108.222 18.2674 108.882 16.7776 109.313C15.2743 109.744 13.7308 109.96 12.147 109.96C9.82494 109.96 7.57004 109.555 5.40909 108.734C3.23472 107.925 1.43616 106.767 0 105.258L5.14065 100.004C5.93255 100.987 6.97947 101.809 8.28141 102.469C9.58335 103.129 10.8719 103.453 12.1604 103.453C12.7375 103.453 13.3013 103.385 13.8516 103.264C14.4019 103.143 14.8851 102.941 15.3011 102.671C15.7172 102.388 16.0394 102.025 16.281 101.567C16.5226 101.108 16.6433 100.556 16.6433 99.9094C16.6433 99.2897 16.4957 98.7778 16.187 98.3467C15.8783 97.9156 15.4488 97.5249 14.8851 97.1746C14.3213 96.8243 13.61 96.501 12.7778 96.2046C11.9322 95.9082 10.9792 95.5983 9.90548 95.2615C8.87198 94.9247 7.8519 94.5206 6.85867 94.0625C5.86544 93.6045 4.97958 93.0117 4.2011 92.2842C3.42262 91.5702 2.79179 90.6945 2.32202 89.6571C1.85224 88.6333 1.61065 87.3803 1.61065 85.9119C1.61065 84.1066 1.97304 82.5573 2.71126 81.264C3.44947 79.9707 4.40243 78.9198 5.597 78.0846C6.79156 77.2493 8.13377 76.6565 9.63704 76.2658C11.1403 75.8886 12.6436 75.6865 14.1737 75.6865C16.0125 75.6865 17.8782 76.0233 19.7975 76.6969C21.7035 77.3705 23.3812 78.3675 24.8174 79.6878L19.7841 85.0092Z" fill="#EE101F"></path><path d="M49.0038 109.124L46.4804 102.725H33.9174L31.5282 109.124H22.9918L36.6152 76.5352H44.2255L57.7147 109.124H49.0038ZM40.2794 85.2382L36.1454 96.42H44.306L40.2794 85.2382Z" fill="#EE101F"></path><path d="M57.661 109.124V76.5352H65.5532V102.267H78.1162V109.124H57.661Z" fill="#EE101F"></path><path d="M104.464 102.2C103.806 103.816 102.867 105.19 101.645 106.349C100.424 107.494 98.9474 108.397 97.2159 109.043C95.4845 109.69 93.5651 110.013 91.4578 110.013C89.3237 110.013 87.391 109.69 85.6729 109.043C83.9549 108.397 82.5053 107.508 81.3108 106.349C80.1162 105.204 79.2035 103.816 78.5593 102.2C77.915 100.583 77.5929 98.8046 77.5929 96.8377V76.5352H85.3911V96.191C85.3911 97.0802 85.5119 97.9289 85.7401 98.7238C85.9682 99.5186 86.3172 100.233 86.8004 100.866C87.2702 101.499 87.901 101.998 88.6795 102.361C89.458 102.725 90.3975 102.914 91.4981 102.914C92.5987 102.914 93.5383 102.725 94.3168 102.361C95.0952 101.998 95.7261 101.499 96.2227 100.866C96.7059 100.233 97.0683 99.5186 97.283 98.7238C97.4978 97.9289 97.6052 97.0802 97.6052 96.191V76.5352H105.444V96.8377C105.457 98.8046 105.122 100.596 104.464 102.2Z" fill="#EE101F"></path><path d="M139.348 92.7421C139.348 95.5982 138.824 98.0636 137.764 100.125C136.704 102.2 135.321 103.897 133.59 105.231C131.858 106.565 129.912 107.548 127.738 108.181C125.563 108.814 123.362 109.124 121.134 109.124H109.027V76.5352H120.772C123.067 76.5352 125.322 76.8046 127.563 77.3435C129.791 77.8824 131.778 78.7715 133.523 80.011C135.267 81.2504 136.677 82.921 137.737 85.0091C138.811 87.0973 139.348 89.6705 139.348 92.7421ZM131.174 92.7421C131.174 90.8965 130.878 89.3741 130.274 88.1616C129.684 86.9491 128.879 85.9791 127.885 85.2651C126.892 84.5511 125.765 84.0257 124.49 83.7293C123.214 83.4194 121.912 83.2712 120.57 83.2712H116.678V102.334H120.396C121.805 102.334 123.161 102.173 124.449 101.849C125.751 101.526 126.892 101.001 127.885 100.26C128.879 99.5186 129.67 98.5352 130.274 97.3092C130.878 96.0697 131.174 94.5474 131.174 92.7421Z" fill="#EE101F"></path><path d="M2.06696 58.4421H4.68426L7.20761 65.4745H7.24787L9.78464 58.4421H12.3214L8.49613 68.0746H5.94594L2.06696 58.4421Z" fill="#EE101F"></path><path d="M22.1328 63.3864C22.1328 63.4942 22.1328 63.602 22.1328 63.7097C22.1328 63.8175 22.1194 63.9253 22.1194 64.0331H14.8178C14.8447 64.3833 14.9386 64.6932 15.0863 64.9896C15.2339 65.2725 15.4487 65.5285 15.6903 65.7306C15.9453 65.9326 16.2271 66.1078 16.5493 66.229C16.8714 66.3503 17.2069 66.4042 17.5559 66.4042C18.1599 66.4042 18.6565 66.2964 19.0726 66.0674C19.4887 65.8518 19.8243 65.542 20.0927 65.1513L21.6899 66.4311C20.737 67.711 19.3679 68.3576 17.5693 68.3576C16.8177 68.3576 16.1332 68.2364 15.5023 68.0074C14.8715 67.7783 14.3346 67.4415 13.8783 67.0104C13.4219 66.5793 13.0595 66.0539 12.8045 65.4342C12.5495 64.8145 12.4153 64.1004 12.4153 63.3191C12.4153 62.5377 12.5495 61.8371 12.8045 61.2039C13.0595 60.5707 13.4219 60.0319 13.8783 59.5738C14.3346 59.1292 14.8715 58.7789 15.4889 58.523C16.1063 58.2805 16.7774 58.1458 17.5022 58.1458C18.1733 58.1458 18.7908 58.2535 19.3545 58.4826C19.9182 58.6981 20.4148 59.0349 20.8309 59.466C21.247 59.8971 21.5691 60.4495 21.7973 61.0961C22.012 61.7563 22.1328 62.5107 22.1328 63.3864ZM19.7303 62.2952C19.7303 61.9853 19.69 61.6889 19.5961 61.406C19.5155 61.1231 19.3679 60.8806 19.18 60.665C18.9921 60.4495 18.7505 60.2743 18.4686 60.1531C18.1868 60.0318 17.8512 59.9645 17.462 59.9645C16.7372 59.9645 16.1332 60.18 15.6366 60.6112C15.14 61.0423 14.8581 61.6081 14.8044 62.2817H19.7303V62.2952Z" fill="#EE101F"></path><path d="M23.6497 58.4421H25.9315V59.9914H25.9718C26.1865 59.5064 26.5489 59.0888 27.0858 58.7115C27.6092 58.3478 28.2401 58.1592 28.9515 58.1592C29.5823 58.1592 30.1192 58.267 30.5621 58.496C31.005 58.7115 31.3808 59.0079 31.6627 59.3717C31.9446 59.7354 32.1593 60.1531 32.2935 60.6111C32.4278 61.0826 32.4949 61.5676 32.4949 62.0526V68.0747H30.0923V62.7397C30.0923 62.4568 30.0789 62.1604 30.0386 61.8505C29.9984 61.5407 29.9178 61.2712 29.7836 61.0153C29.6494 60.7728 29.4615 60.5572 29.2333 60.409C29.0051 60.2474 28.683 60.1665 28.3072 60.1665C27.918 60.1665 27.5824 60.2474 27.3005 60.3955C27.0187 60.5437 26.7905 60.7458 26.616 60.9883C26.4415 61.2308 26.2939 61.5137 26.1999 61.8236C26.106 62.1335 26.0657 62.4568 26.0657 62.7801V68.0747H23.6632V58.4421H23.6497Z" fill="#EE101F"></path><path d="M43.6618 63.3864C43.6618 63.4942 43.6618 63.602 43.6618 63.7097C43.6618 63.8175 43.6484 63.9253 43.6484 64.0331H36.3468C36.3736 64.3833 36.4676 64.6932 36.6152 64.9896C36.7629 65.2725 36.9776 65.5285 37.2192 65.7306C37.4742 65.9326 37.7561 66.1078 38.0782 66.229C38.4004 66.3503 38.7359 66.4042 39.0849 66.4042C39.6889 66.4042 40.1855 66.2964 40.6016 66.0674C41.0177 65.8518 41.3532 65.542 41.6217 65.1513L43.2189 66.4311C42.2659 67.711 40.8969 68.3576 39.0983 68.3576C38.3467 68.3576 37.6621 68.2364 37.0313 68.0074C36.4005 67.7783 35.8636 67.4415 35.4072 67.0104C34.9509 66.5793 34.5885 66.0539 34.3335 65.4342C34.0785 64.8145 33.9442 64.1004 33.9442 63.3191C33.9442 62.5377 34.0785 61.8371 34.3335 61.2039C34.5885 60.5707 34.9509 60.0319 35.4072 59.5738C35.8636 59.1292 36.4005 58.7789 37.0179 58.523C37.6353 58.2805 38.3064 58.1458 39.0312 58.1458C39.7023 58.1458 40.3197 58.2535 40.8834 58.4826C41.4472 58.6981 41.9438 59.0349 42.3599 59.466C42.7759 59.8971 43.0981 60.4495 43.3263 61.0961C43.541 61.7563 43.6618 62.5107 43.6618 63.3864ZM41.2593 62.2952C41.2593 61.9853 41.219 61.6889 41.125 61.406C41.0445 61.1231 40.8969 60.8806 40.709 60.665C40.521 60.4495 40.2794 60.2743 39.9976 60.1531C39.7157 60.0318 39.3802 59.9645 38.9909 59.9645C38.2661 59.9645 37.6621 60.18 37.1655 60.6112C36.6689 61.0423 36.3871 61.6081 36.3334 62.2817H41.2593V62.2952Z" fill="#EE101F"></path><path d="M56.641 58.1592C57.2718 58.1592 57.8087 58.267 58.2516 58.496C58.6946 58.7115 59.0704 59.0079 59.3522 59.3717C59.6341 59.7354 59.8489 60.1531 59.9831 60.6111C60.1173 61.0826 60.1844 61.5676 60.1844 62.0526V68.0747H57.7819V62.7397C57.7819 62.4568 57.7684 62.1604 57.7282 61.8505C57.6879 61.5407 57.6074 61.2712 57.4732 61.0153C57.3389 60.7728 57.151 60.5572 56.9229 60.409C56.6947 60.2474 56.386 60.1665 55.9967 60.1665C55.6209 60.1665 55.2988 60.2474 55.0303 60.409C54.7619 60.5707 54.5471 60.7728 54.3727 61.0287C54.1982 61.2847 54.0774 61.5676 53.9968 61.8775C53.9163 62.1873 53.876 62.4972 53.876 62.8071V68.0747H51.4735V62.2547C51.4735 61.6485 51.3259 61.15 51.044 60.7593C50.7621 60.3686 50.3058 60.1665 49.6884 60.1665C49.326 60.1665 49.0173 60.2474 48.7488 60.3955C48.4804 60.5437 48.2656 60.7458 48.1046 60.9883C47.9435 61.2308 47.8093 61.5137 47.7287 61.8236C47.6482 62.1335 47.5945 62.4568 47.5945 62.7801V68.0747H45.192V58.4421H47.4737V59.9914H47.514C47.6214 59.7489 47.769 59.5199 47.9435 59.3043C48.118 59.0888 48.3327 58.9001 48.5878 58.725C48.8294 58.5499 49.1112 58.4151 49.4333 58.3074C49.7555 58.2131 50.1044 58.1592 50.4937 58.1592C51.2453 58.1592 51.8627 58.3208 52.3594 58.6576C52.856 58.9944 53.2318 59.439 53.5002 59.9779C53.8224 59.3851 54.2519 58.9406 54.7753 58.6172C55.2988 58.3208 55.9162 58.1592 56.641 58.1592Z" fill="#EE101F"></path><path d="M71.3381 63.3864C71.3381 63.4942 71.3381 63.602 71.3381 63.7097C71.3381 63.8175 71.3247 63.9253 71.3247 64.0331H64.0231C64.0499 64.3833 64.1439 64.6932 64.2915 64.9896C64.4391 65.2725 64.6539 65.5285 64.8955 65.7306C65.1505 65.9326 65.4324 66.1078 65.7545 66.229C66.0766 66.3503 66.4122 66.4042 66.7612 66.4042C67.3652 66.4042 67.8618 66.2964 68.2778 66.0674C68.6939 65.8518 69.0295 65.542 69.2979 65.1513L70.8952 66.4311C69.9422 67.711 68.5731 68.3576 66.7746 68.3576C66.0229 68.3576 65.3384 68.2364 64.7076 68.0074C64.0767 67.7783 63.5399 67.4415 63.0835 67.0104C62.6272 66.5793 62.2648 66.0539 62.0098 65.4342C61.7547 64.8145 61.6205 64.1004 61.6205 63.3191C61.6205 62.5377 61.7547 61.8371 62.0098 61.2039C62.2648 60.5707 62.6272 60.0319 63.0835 59.5738C63.5399 59.1292 64.0767 58.7789 64.6942 58.523C65.3116 58.2805 65.9827 58.1458 66.7075 58.1458C67.3786 58.1458 67.996 58.2535 68.5597 58.4826C69.1234 58.6981 69.6201 59.0349 70.0361 59.466C70.4522 59.8971 70.7744 60.4495 71.0025 61.0961C71.2307 61.7563 71.3381 62.5107 71.3381 63.3864ZM68.949 62.2952C68.949 61.9853 68.9087 61.6889 68.8147 61.406C68.7342 61.1231 68.5866 60.8806 68.3986 60.665C68.2107 60.4495 67.9691 60.2743 67.6873 60.1531C67.4054 60.0318 67.0699 59.9645 66.6806 59.9645C65.9558 59.9645 65.3518 60.18 64.8552 60.6112C64.3586 61.0423 64.0767 61.6081 64.0231 62.2817H68.949V62.2952Z" fill="#EE101F"></path><path d="M75.1636 58.4421V60.0453H75.2038C75.4723 59.4795 75.8481 59.0214 76.3179 58.6846C76.7876 58.3478 77.3648 58.1592 77.9956 58.1592C78.0896 58.1592 78.1835 58.1592 78.2909 58.1726C78.3983 58.1861 78.4922 58.1996 78.5728 58.2265V60.436C78.4117 60.3956 78.2775 60.3686 78.1567 60.3551C78.0493 60.3417 77.9285 60.3417 77.8211 60.3417C77.2708 60.3417 76.8279 60.436 76.5058 60.6381C76.1702 60.8401 75.9152 61.0826 75.7273 61.3655C75.5394 61.6485 75.4186 61.9314 75.3515 62.2278C75.2844 62.5242 75.2575 62.7532 75.2575 62.9283V68.0881H72.855V58.4421H75.1636Z" fill="#EE101F"></path><path d="M89.1091 58.442V67.2258C89.1091 68.1015 89.0017 68.8829 88.7869 69.5835C88.5722 70.284 88.2366 70.8768 87.7937 71.3753C87.3508 71.8603 86.787 72.2375 86.1025 72.5069C85.418 72.7764 84.6127 72.9111 83.6865 72.9111C83.2973 72.9111 82.8946 72.8841 82.4517 72.8168C82.0222 72.7494 81.5927 72.6551 81.1766 72.5204C80.7605 72.3857 80.3579 72.224 79.9686 72.0219C79.5794 71.8198 79.2304 71.5908 78.9217 71.3348L80.3042 69.4622C80.774 69.9068 81.2974 70.2436 81.888 70.4726C82.4786 70.7017 83.0691 70.8229 83.6731 70.8229C84.2503 70.8229 84.7335 70.7421 85.1227 70.5669C85.5119 70.4053 85.8341 70.1628 86.0622 69.8664C86.2904 69.57 86.4649 69.2197 86.5589 68.8156C86.6528 68.4114 86.7065 67.9668 86.7065 67.4818V66.7813H86.6662C86.3173 67.2528 85.8743 67.6165 85.3375 67.8725C84.8006 68.1285 84.1966 68.2497 83.5255 68.2497C82.8007 68.2497 82.1564 68.115 81.5659 67.8456C80.9753 67.5761 80.4787 67.2124 80.076 66.7678C79.6733 66.3097 79.3512 65.7843 79.123 65.1781C78.8949 64.5718 78.7875 63.9252 78.7875 63.2381C78.7875 62.5375 78.8949 61.8909 79.123 61.2712C79.3378 60.6514 79.6599 60.126 80.0626 59.668C80.4653 59.2099 80.9619 58.8462 81.539 58.5902C82.1162 58.3208 82.7738 58.186 83.4852 58.186C84.1697 58.186 84.8006 58.3208 85.3912 58.6037C85.9817 58.8866 86.4381 59.3177 86.787 59.9105H86.8273V58.469H89.1091V58.442ZM83.9818 60.126C83.5389 60.126 83.1497 60.2069 82.8141 60.3685C82.4786 60.5302 82.1833 60.7457 81.9551 61.0152C81.7269 61.2846 81.539 61.608 81.4182 61.9852C81.2974 62.3624 81.2303 62.7531 81.2303 63.1842C81.2303 63.5749 81.2974 63.9386 81.4182 64.3024C81.539 64.6661 81.7269 64.9895 81.9551 65.2724C82.1833 65.5553 82.4786 65.7843 82.8141 65.9595C83.1497 66.1346 83.5389 66.2154 83.9684 66.2154C84.4113 66.2154 84.8006 66.1346 85.163 65.9595C85.5119 65.7978 85.8206 65.5688 86.0622 65.2859C86.3038 65.0029 86.5052 64.6796 86.626 64.3159C86.7602 63.9521 86.8273 63.5614 86.8273 63.1707C86.8273 62.7531 86.7602 62.3624 86.626 61.9852C86.4917 61.608 86.3038 61.2846 86.0622 61.0017C85.8206 60.7188 85.5119 60.5032 85.1764 60.3416C84.8274 60.2069 84.4248 60.126 83.9818 60.126Z" fill="#EE101F"></path><path d="M100.357 63.3864C100.357 63.4942 100.357 63.602 100.357 63.7097C100.357 63.8175 100.343 63.9253 100.343 64.0331H93.0416C93.0684 64.3833 93.1624 64.6932 93.31 64.9896C93.4577 65.2725 93.6724 65.5285 93.914 65.7306C94.169 65.9326 94.4509 66.1078 94.773 66.229C95.0952 66.3503 95.4307 66.4042 95.7797 66.4042C96.3837 66.4042 96.8803 66.2964 97.2964 66.0674C97.7125 65.8518 98.048 65.542 98.3165 65.1513L99.9137 66.4311C98.9607 67.711 97.5917 68.3576 95.7931 68.3576C95.0415 68.3576 94.3569 68.2364 93.7261 68.0074C93.0953 67.7783 92.5584 67.4415 92.102 67.0104C91.6457 66.5793 91.2833 66.0539 91.0283 65.4342C90.7733 64.8145 90.639 64.1004 90.639 63.3191C90.639 62.5377 90.7733 61.8371 91.0283 61.2039C91.2833 60.5707 91.6457 60.0319 92.102 59.5738C92.5584 59.1292 93.0953 58.7789 93.7127 58.523C94.3301 58.2805 95.0012 58.1458 95.726 58.1458C96.3971 58.1458 97.0145 58.2535 97.5782 58.4826C98.142 58.6981 98.6386 59.0349 99.0547 59.466C99.4707 59.8971 99.7929 60.4495 100.021 61.0961C100.236 61.7563 100.357 62.5107 100.357 63.3864ZM97.9541 62.2952C97.9541 61.9853 97.9138 61.6889 97.8198 61.406C97.7393 61.1231 97.5917 60.8806 97.4038 60.665C97.2158 60.4495 96.9742 60.2743 96.6924 60.1531C96.4105 60.0318 96.075 59.9645 95.6857 59.9645C94.9609 59.9645 94.3569 60.18 93.8603 60.6112C93.3637 61.0423 93.0818 61.6081 93.0282 62.2817H97.9541V62.2952Z" fill="#EE101F"></path><path d="M101.873 58.4421H104.155V59.9914H104.196C104.41 59.5064 104.773 59.0888 105.31 58.7115C105.833 58.3478 106.464 58.1592 107.175 58.1592C107.806 58.1592 108.343 58.267 108.786 58.496C109.229 58.7115 109.605 59.0079 109.886 59.3717C110.168 59.7354 110.383 60.1531 110.517 60.6111C110.652 61.0826 110.719 61.5676 110.719 62.0526V68.0747H108.316V62.7397C108.316 62.4568 108.303 62.1604 108.262 61.8505C108.222 61.5407 108.142 61.2712 108.007 61.0153C107.873 60.7728 107.685 60.5572 107.457 60.409C107.229 60.2474 106.907 60.1665 106.531 60.1665C106.142 60.1665 105.806 60.2474 105.524 60.3955C105.242 60.5437 105.014 60.7458 104.84 60.9883C104.665 61.2308 104.518 61.5137 104.424 61.8236C104.33 62.1335 104.289 62.4568 104.289 62.7801V68.0747H101.887V58.4421H101.873Z" fill="#EE101F"></path><path d="M119.282 61.123C119.094 60.8535 118.812 60.6245 118.436 60.4494C118.06 60.2742 117.685 60.1799 117.295 60.1799C116.852 60.1799 116.463 60.2742 116.141 60.4494C115.805 60.6245 115.537 60.867 115.309 61.1634C115.094 61.4598 114.92 61.7831 114.812 62.1603C114.705 62.5241 114.651 62.9013 114.651 63.2785C114.651 63.6557 114.705 64.0195 114.826 64.3967C114.933 64.7604 115.107 65.0972 115.336 65.3936C115.564 65.69 115.846 65.919 116.181 66.1077C116.517 66.2828 116.919 66.3771 117.376 66.3771C117.752 66.3771 118.127 66.3097 118.49 66.1615C118.866 66.0134 119.161 65.7978 119.389 65.5149L120.892 67.0372C120.49 67.4683 119.98 67.7917 119.362 68.0342C118.745 68.2632 118.074 68.3844 117.349 68.3844C116.638 68.3844 115.966 68.2767 115.336 68.0476C114.705 67.8186 114.155 67.4818 113.671 67.0372C113.202 66.5927 112.826 66.0538 112.557 65.434C112.289 64.8009 112.141 64.0868 112.141 63.292C112.141 62.5106 112.275 61.81 112.557 61.1768C112.826 60.5437 113.202 60.0182 113.671 59.5737C114.141 59.1291 114.678 58.7923 115.295 58.5498C115.913 58.3073 116.584 58.186 117.282 58.186C117.993 58.186 118.678 58.3208 119.335 58.5902C119.993 58.8596 120.517 59.2234 120.906 59.6949L119.282 61.123Z" fill="#EE101F"></path><path d="M121.376 55.1683C121.376 54.7776 121.523 54.4408 121.805 54.1579C122.087 53.875 122.449 53.7268 122.892 53.7268C123.335 53.7268 123.698 53.8615 124.006 54.1444C124.302 54.4139 124.463 54.7642 124.463 55.1818C124.463 55.5994 124.315 55.9362 124.006 56.2192C123.711 56.4886 123.335 56.6368 122.892 56.6368C122.449 56.6368 122.087 56.4886 121.805 56.2057C121.523 55.8958 121.376 55.559 121.376 55.1683ZM121.711 58.4421H124.114V68.0746H121.711V58.4421Z" fill="#EE101F"></path><path d="M132.14 66.8621C131.899 67.2932 131.509 67.6435 130.986 67.913C130.449 68.1824 129.845 68.3306 129.16 68.3306C128.771 68.3306 128.368 68.2767 127.952 68.1824C127.536 68.0881 127.147 67.913 126.798 67.6839C126.449 67.4549 126.154 67.1451 125.912 66.7544C125.684 66.3771 125.563 65.9056 125.563 65.3398C125.563 64.6123 125.765 64.0465 126.167 63.6154C126.57 63.1842 127.093 62.8609 127.738 62.6319C128.382 62.4029 129.093 62.2547 129.872 62.1738C130.65 62.1065 131.415 62.0661 132.167 62.0661V61.8236C132.167 61.2173 131.952 60.7727 131.523 60.4898C131.093 60.2069 130.57 60.0587 129.966 60.0587C129.456 60.0587 128.972 60.1665 128.503 60.382C128.033 60.5976 127.644 60.8536 127.348 61.1634L126.114 59.695C126.664 59.183 127.295 58.8058 128.006 58.5498C128.717 58.2939 129.442 58.1726 130.18 58.1726C131.039 58.1726 131.737 58.2939 132.288 58.5364C132.838 58.7789 133.281 59.0887 133.603 59.4794C133.925 59.8701 134.14 60.3012 134.274 60.7862C134.395 61.2712 134.462 61.7562 134.462 62.2277V68.0881H132.221V66.8621H132.14ZM132.154 63.6827H131.617C131.227 63.6827 130.825 63.6962 130.395 63.7366C129.966 63.7635 129.576 63.8444 129.214 63.9522C128.852 64.0599 128.556 64.2216 128.315 64.4371C128.073 64.6392 127.952 64.9356 127.952 65.2859C127.952 65.5149 128.006 65.7035 128.1 65.8517C128.194 65.9999 128.328 66.1346 128.489 66.229C128.65 66.3233 128.825 66.3906 129.026 66.431C129.228 66.4715 129.429 66.4849 129.63 66.4849C130.462 66.4849 131.08 66.2694 131.509 65.8248C131.939 65.3802 132.154 64.774 132.154 64.0195V63.6827Z" fill="#EE101F"></path><path d="M69.1371 7.78687C64.8286 7.78687 60.7886 9.47088 57.7418 12.5291C54.695 15.5872 53.0172 19.6423 53.0172 23.9669C53.0172 28.2915 54.695 32.3466 57.7418 35.4047C60.7886 38.4629 64.8286 40.1469 69.1371 40.1469C73.4456 40.1469 77.4856 38.4629 80.5324 35.4047C83.5792 32.3466 85.257 28.2915 85.257 23.9669C85.257 19.6423 83.5792 15.5872 80.5324 12.5291C77.4856 9.47088 73.4456 7.78687 69.1371 7.78687ZM69.1371 8.71644C77.5259 8.71644 84.3309 15.5468 84.3309 23.9669C84.3309 32.387 77.5259 39.2174 69.1371 39.2174C60.7483 39.2174 53.9433 32.387 53.9433 23.9669C53.9433 15.5468 60.7483 8.71644 69.1371 8.71644Z" fill="#EE101F"></path><path d="M69.137 3.8125C66.4257 3.8125 63.795 4.35139 61.3119 5.40221C58.9228 6.41262 56.7753 7.86761 54.923 9.72677C53.0842 11.5725 51.6346 13.728 50.6146 16.1395C49.5676 18.6319 49.0308 21.2724 49.0308 23.9938C49.0308 26.7151 49.5676 29.3557 50.6146 31.848C51.6212 34.2461 53.0708 36.4016 54.923 38.2608C56.7619 40.1064 58.9094 41.5614 61.3119 42.5853C63.795 43.6361 66.4257 44.175 69.137 44.175C71.8483 44.175 74.479 43.6361 76.9621 42.5853C79.3512 41.5749 81.4987 40.1199 83.351 38.2608C85.1898 36.4151 86.6394 34.2461 87.6594 31.848C88.7064 29.3557 89.2432 26.7151 89.2432 23.9938C89.2432 21.2724 88.7064 18.6319 87.6594 16.1395C86.6528 13.7415 85.2032 11.5859 83.351 9.72677C81.5121 7.88108 79.3512 6.42609 76.9621 5.40221C74.479 4.33791 71.8483 3.8125 69.137 3.8125ZM69.137 4.72861C79.727 4.72861 88.3037 13.3373 88.3037 23.9668C88.3037 34.5963 79.727 43.205 69.137 43.205C58.547 43.205 49.9703 34.5963 49.9703 23.9668C49.9703 13.3508 58.547 4.72861 69.137 4.72861Z" fill="#EE101F"></path><path d="M69.1371 0C65.9158 0 62.7884 0.63319 59.8356 1.8861C56.9901 3.09859 54.4399 4.82302 52.2387 7.01898C50.0509 9.21494 48.3194 11.7881 47.1249 14.6442C45.8766 17.5946 45.2458 20.7336 45.2458 23.9804C45.2458 27.2137 45.8766 30.3527 47.1249 33.3166C48.3329 36.1727 50.0509 38.7324 52.2387 40.9418C54.4265 43.1378 56.9901 44.8757 59.8356 46.0747C62.775 47.3276 65.9023 47.9608 69.1371 47.9608C72.3584 47.9608 75.4857 47.3276 78.4385 46.0747C81.284 44.8622 83.8342 43.1378 86.0354 40.9418C88.2232 38.7459 89.9547 36.1727 91.1492 33.3166C92.3975 30.3662 93.0283 27.2272 93.0283 23.9804C93.0283 20.7471 92.3975 17.6081 91.1492 14.6442C89.9412 11.7881 88.2232 9.22841 86.0354 7.01898C83.8476 4.82302 81.284 3.08512 78.4385 1.8861C75.4857 0.63319 72.3584 0 69.1371 0ZM69.1371 0.929577C81.8209 0.929577 92.0888 11.2492 92.0888 23.9669C92.0888 36.6846 81.8075 47.0043 69.1371 47.0043C56.4666 47.0043 46.1853 36.6846 46.1853 23.9669C46.1853 11.2492 56.4532 0.929577 69.1371 0.929577Z" fill="#EE101F"></path><path d="M69.2311 18.3759C70.0901 17.406 71.137 16.7862 72.4121 16.5976C74.412 16.3012 76.13 16.921 77.4051 18.4972C78.8278 20.262 79.0426 22.2425 78.0628 24.2902C77.7943 24.8426 77.3917 25.368 76.9622 25.8126C74.5999 28.2106 72.2108 30.5817 69.8351 32.9663C69.419 33.3839 69.0431 33.3839 68.6136 32.9663C66.1977 30.5548 63.7951 28.1432 61.3926 25.7317C60.3322 24.6674 59.8088 23.3606 59.7954 21.8518C59.7954 19.6289 61.312 17.5137 63.4327 16.8267C65.5534 16.153 67.4191 16.6246 69.0029 18.1739C69.0566 18.2278 69.1103 18.2816 69.1639 18.3355C69.1908 18.3355 69.2042 18.349 69.2311 18.3759ZM69.1908 31.4305C69.2579 31.3766 69.2847 31.3496 69.3116 31.3361C71.5531 29.0863 73.808 26.8365 76.036 24.5731C76.6803 23.9265 77.0293 23.1047 77.0964 22.1886C77.2306 20.3968 76.1434 18.7801 74.412 18.2143C72.7476 17.6754 70.8686 18.3759 69.9961 19.9118C69.6069 20.5989 68.8552 20.545 68.4794 19.9522C68.2244 19.5346 67.8754 19.1304 67.4862 18.834C66.144 17.8101 64.5468 17.7697 63.1106 18.6589C61.7416 19.4941 61.0436 21.3263 61.4597 22.8891C61.6744 23.6705 62.1039 24.2902 62.6677 24.856C64.7884 26.9846 66.9225 29.1132 69.0431 31.2418C69.0968 31.2957 69.1371 31.3631 69.1908 31.4305Z" fill="#EE101F"></path></svg>