<svg xmlns="http://www.w3.org/2000/svg" width="127" height="108" viewBox="0 0 127 108" fill="none"><path d="M70.765 27.3629C67.5153 27.3629 64.2969 27.3629 61.0316 27.3629C61.0316 27.4729 61.0316 27.583 61.0316 27.7087C60.9847 28.4317 60.5473 28.9189 59.8286 28.9817C59.3599 29.0289 58.8912 29.0132 58.4225 28.9817C57.7663 28.9503 57.2195 28.4002 57.2039 27.6458C57.2039 26.0899 57.1883 24.5182 57.2039 22.9622C57.2039 22.365 57.3445 21.7992 57.6101 21.2648C57.6413 21.2176 57.657 21.1548 57.657 21.1548C57.4226 21.0133 57.1883 20.8876 56.9852 20.7304C56.7821 20.5733 56.6414 20.3375 56.6258 20.086C56.5946 19.6774 56.5633 19.2373 56.6258 18.8287C56.7196 18.2315 57.282 17.8385 57.8913 17.8228C58.2975 17.8071 58.7037 17.8385 59.0631 18.0743C59.2349 17.6814 59.3911 17.3199 59.5474 16.9584C59.688 16.6441 59.8442 16.3454 60.0005 16.0311C60.516 15.0095 61.3441 14.4123 62.4377 14.1922C63.4532 13.9879 64.4687 13.925 65.4999 13.925C66.4998 13.925 67.4841 13.9408 68.4839 14.0508C69.187 14.1294 69.8744 14.2551 70.4994 14.6323C70.9993 14.9309 71.3899 15.3238 71.6555 15.8425C71.9836 16.4869 72.2804 17.1627 72.5929 17.8228C72.6241 17.8857 72.6554 17.9643 72.6866 18.0429C72.7647 18.0114 72.8116 17.98 72.8741 17.9486C73.3741 17.7285 73.874 17.7128 74.374 17.9014C74.8114 18.0743 75.1083 18.4201 75.1551 18.9073C75.1864 19.2373 75.202 19.5831 75.1707 19.9289C75.1239 20.5104 74.7177 20.919 74.0927 21.0919C74.1396 21.2176 74.2021 21.3434 74.249 21.4691C74.4521 21.9721 74.5614 22.5064 74.5614 23.0408C74.5614 24.5496 74.5614 26.0741 74.5614 27.583C74.5614 28.2431 74.1865 28.7774 73.6084 28.9346C73.5147 28.966 73.4366 28.9817 73.3428 28.9817C72.8429 28.9817 72.3429 28.9975 71.8586 28.966C71.2649 28.9189 70.7962 28.3845 70.7493 27.803C70.7806 27.6458 70.7806 27.5044 70.765 27.3629ZM65.9217 26.5771C67.609 26.5771 69.2964 26.5771 70.9837 26.5771C71.0462 26.5771 71.1087 26.5771 71.1712 26.5771C71.4055 26.5928 71.5305 26.7342 71.5461 26.97C71.5461 27.19 71.5461 27.4101 71.5461 27.6301C71.5461 27.9916 71.7805 28.2116 72.1398 28.2116C72.4992 28.2116 72.8429 28.1959 73.2022 28.2116C73.6397 28.2273 73.874 27.9287 73.8584 27.5515C73.8428 26.0741 73.8584 24.5968 73.8584 23.1194C73.8584 22.3335 73.6397 21.6263 73.1866 20.9819C73.0928 20.8404 73.046 20.7147 73.1241 20.5418C73.2022 20.3689 73.3428 20.3218 73.5147 20.3218C73.6709 20.3218 73.8271 20.3218 73.9834 20.3061C74.2646 20.2746 74.4677 20.0703 74.4677 19.7717C74.4833 19.5359 74.4833 19.3002 74.4677 19.0644C74.4521 18.813 74.2958 18.6087 74.0615 18.5772C73.6397 18.5301 73.2178 18.5144 72.8897 18.8601C72.6398 19.1273 72.2804 19.033 72.1398 18.6872C71.8273 17.9328 71.4836 17.1941 71.1555 16.4712C70.7962 15.6853 70.2025 15.151 69.3432 14.9624C68.8589 14.8523 68.3433 14.7895 67.8434 14.758C66.3436 14.648 64.8437 14.648 63.3439 14.8209C62.8752 14.8681 62.4065 14.9466 61.9534 15.1352C61.3441 15.4024 60.9222 15.8897 60.6566 16.4869C60.3129 17.2256 59.9848 17.98 59.6567 18.7344C59.5318 19.033 59.2349 19.1273 59.0162 18.923C58.7037 18.6087 58.3288 18.5458 57.9069 18.5615C57.6101 18.5772 57.3914 18.7815 57.3757 19.0802C57.3601 19.3159 57.3601 19.5359 57.3757 19.7717C57.3914 20.086 57.6257 20.3061 57.9226 20.3218C58.0944 20.3218 58.2663 20.3218 58.4381 20.3532C58.7037 20.3847 58.8287 20.6518 58.7193 20.8876C58.6881 20.9347 58.6569 20.9819 58.6256 21.0448C58.235 21.6106 58.0007 22.255 58.0007 22.9465C57.985 24.5182 58.0007 26.0741 58.0007 27.6458C58.0007 27.9916 58.2194 28.2116 58.5787 28.2116C58.9537 28.2116 59.3443 28.2116 59.7192 28.2116C60.0786 28.2116 60.3129 27.9916 60.3129 27.6144C60.3129 27.3944 60.3129 27.1586 60.3129 26.9386C60.3129 26.75 60.4535 26.6085 60.641 26.5771C60.7035 26.5614 60.7816 26.5614 60.8441 26.5614C62.5158 26.5771 64.2188 26.5771 65.9217 26.5771Z" fill="#EE101F"></path><path d="M65.9063 19.9761C64.2971 19.9761 62.6722 19.9604 61.063 19.9761C60.7193 19.9761 60.4849 19.7246 60.6412 19.3631C61.0161 18.5458 61.3755 17.7128 61.7504 16.8956C62.016 16.2983 62.5472 16.1097 63.1409 16.0311C64.4064 15.8425 65.6875 15.8425 66.953 15.874C67.6405 15.8897 68.3122 15.9997 68.9997 16.094C69.5153 16.1726 69.9058 16.4712 70.1246 16.9584C70.4839 17.7757 70.8589 18.593 71.2026 19.426C71.3276 19.7246 71.1557 19.9761 70.8276 19.9761C69.1715 19.9761 67.5467 19.9761 65.9063 19.9761ZM61.5317 19.1902C64.4533 19.1902 67.3592 19.1902 70.2652 19.1902C70.2495 19.1274 70.2339 19.0802 70.2183 19.0488C69.9371 18.4358 69.6402 17.8229 69.359 17.2099C69.2809 17.0213 69.1403 16.8956 68.9372 16.8641C68.4685 16.7856 67.9998 16.707 67.5311 16.6755C66.3437 16.597 65.1563 16.597 63.969 16.707C63.6096 16.7384 63.2503 16.8013 62.8909 16.8641C62.6878 16.8956 62.5472 17.0056 62.4535 17.2099C62.3285 17.4928 62.1567 17.7757 62.0317 18.0586C61.8598 18.4358 61.7036 18.813 61.5317 19.1902Z" fill="#EE101F"></path><path d="M70.2652 24.0152C69.9215 24.0152 69.5621 24.0467 69.2184 24.0152C68.7028 23.9524 68.3435 23.528 68.2966 23.0094C68.2498 22.5221 68.5622 22.0349 69.0466 21.8935C69.6715 21.7049 70.2964 21.532 70.9214 21.4063C71.5775 21.2648 72.1712 21.7363 72.2181 22.4121C72.2337 22.6636 72.2337 22.9308 72.1869 23.1665C72.0775 23.7009 71.64 24.0467 71.0932 24.0467C70.812 24.0467 70.5308 24.0467 70.2652 24.0467C70.2652 24.031 70.2652 24.031 70.2652 24.0152ZM70.2496 23.2766C70.5308 23.2766 70.812 23.2766 71.0932 23.2766C71.2807 23.2766 71.4213 23.1823 71.4369 22.9937C71.4526 22.805 71.4682 22.6164 71.4369 22.4278C71.4213 22.2235 71.2182 22.0978 71.0151 22.1449C70.437 22.2864 69.8746 22.4436 69.2965 22.6007C69.1091 22.6479 69.0153 22.805 69.0466 22.9779C69.0778 23.1508 69.2028 23.2766 69.4059 23.2766C69.7027 23.2766 69.9683 23.2766 70.2496 23.2766Z" fill="#EE101F"></path><path d="M61.547 24.0468C61.297 24.0468 61.0314 24.0468 60.7815 24.0468C60.0784 24.0468 59.6253 23.6224 59.5941 22.9152C59.5785 22.6794 59.5785 22.4436 59.6253 22.2236C59.7659 21.6107 60.3596 21.2492 60.9846 21.4063C61.5626 21.5478 62.1251 21.6892 62.6875 21.8621C63.1562 22.0036 63.4531 22.3179 63.5156 22.8209C63.5624 23.2609 63.3906 23.6067 63.0312 23.8582C62.8281 23.9996 62.6094 24.0468 62.375 24.0468C62.0938 24.0468 61.8282 24.0468 61.547 24.0468ZM61.5626 23.2766C61.8439 23.2766 62.1251 23.2766 62.3907 23.2766C62.5938 23.2766 62.7344 23.1666 62.7656 22.9937C62.7969 22.8051 62.6875 22.648 62.4844 22.6008C61.922 22.4436 61.3752 22.3022 60.8127 22.1607C60.5627 22.0979 60.3753 22.2393 60.3596 22.5065C60.344 22.648 60.3596 22.7894 60.3596 22.9466C60.3753 23.1666 60.5002 23.2924 60.719 23.2924C61.0002 23.2766 61.2814 23.2766 61.5626 23.2766Z" fill="#EE101F"></path><path d="M27.4415 106.088L24.8168 99.4088H11.7244L9.24028 106.088H0.366211L14.5522 72.093H22.4733L36.503 106.088H27.4415ZM18.3643 81.1616L14.0679 92.8392H22.567L18.3643 81.1616Z" fill="#EE101F"></path><path d="M63.219 98.8586C62.5316 100.54 61.5629 101.986 60.2818 103.181C59.0007 104.375 57.4696 105.318 55.6729 105.994C53.8762 106.67 51.8764 107 49.6892 107C47.455 107 45.4552 106.67 43.6742 105.994C41.8931 105.318 40.3777 104.391 39.1434 103.181C37.9092 101.986 36.9405 100.54 36.2843 98.8586C35.6125 97.1769 35.2844 95.3066 35.2844 93.2634V72.0771H43.393V92.5876C43.393 93.5149 43.518 94.395 43.7523 95.228C43.9867 96.061 44.3616 96.7997 44.8459 97.4598C45.3459 98.1199 45.9864 98.6385 46.7989 99.0157C47.6113 99.393 48.5955 99.5973 49.736 99.5973C50.8765 99.5973 51.8608 99.4087 52.6732 99.0157C53.4856 98.6385 54.1418 98.1042 54.6574 97.4598C55.173 96.7997 55.5323 96.061 55.751 95.228C55.9698 94.395 56.0791 93.5149 56.0791 92.5876V72.0771H64.2501V93.2634C64.2501 95.3066 63.9064 97.1769 63.219 98.8586Z" fill="#EE101F"></path><path d="M82.4357 79.0868V106.088H74.2647V79.0868H64.7188V72.0771H91.9816V79.0868H82.4357Z" fill="#EE101F"></path><path d="M126.634 88.9414C126.634 91.629 126.165 94.0808 125.244 96.3126C124.322 98.5443 123.041 100.446 121.4 102.033C119.76 103.621 117.807 104.847 115.557 105.711C113.292 106.576 110.839 107.016 108.198 107.016C105.558 107.016 103.121 106.576 100.871 105.711C98.6213 104.847 96.684 103.621 95.0436 102.033C93.4031 100.446 92.122 98.5443 91.2002 96.3126C90.2785 94.0808 89.8098 91.629 89.8098 88.9414C89.8098 86.2224 90.2785 83.7706 91.2002 81.5702C92.122 79.3699 93.4031 77.5153 95.0436 75.975C96.684 74.4348 98.6213 73.256 100.871 72.423C103.121 71.59 105.558 71.1814 108.198 71.1814C110.839 71.1814 113.292 71.6057 115.557 72.423C117.822 73.256 119.76 74.4348 121.4 75.975C123.041 77.5153 124.322 79.3699 125.244 81.5702C126.181 83.7548 126.634 86.2224 126.634 88.9414ZM117.901 88.9414C117.901 87.464 117.666 86.0966 117.182 84.8079C116.698 83.5348 116.041 82.4346 115.198 81.5231C114.354 80.6115 113.339 79.8885 112.136 79.3541C110.948 78.8198 109.636 78.5683 108.198 78.5683C106.761 78.5683 105.464 78.8355 104.277 79.3541C103.105 79.8885 102.074 80.5958 101.215 81.5231C100.356 82.4346 99.6993 83.5348 99.2306 84.8079C98.7619 86.0966 98.5432 87.464 98.5432 88.9414C98.5432 90.4816 98.7776 91.8961 99.2619 93.1849C99.7462 94.4894 100.402 95.5896 101.246 96.5169C102.09 97.4442 103.105 98.1672 104.277 98.7015C105.449 99.2359 106.761 99.4874 108.198 99.4874C109.636 99.4874 110.933 99.2202 112.12 98.7015C113.292 98.1672 114.323 97.4442 115.182 96.5169C116.041 95.5896 116.713 94.4737 117.182 93.1849C117.666 91.8961 117.901 90.4659 117.901 88.9414Z" fill="#EE101F"></path><path d="M3.55327 54.4744H5.99051L8.33402 61.0283H8.36526L10.7244 54.4744H13.0835L9.53702 63.4644H7.16227L3.55327 54.4744Z" fill="#EE101F"></path><path d="M22.2075 59.0795C22.2075 59.1738 22.2075 59.2838 22.2075 59.3781C22.2075 59.4724 22.2075 59.5824 22.1919 59.6767H15.3958C15.427 60.0068 15.5051 60.2897 15.6457 60.5726C15.7863 60.8398 15.9738 61.0755 16.2082 61.2641C16.4425 61.4527 16.7081 61.6099 17.005 61.7199C17.3018 61.8299 17.6143 61.8928 17.9424 61.8928C18.5048 61.8928 18.9735 61.7828 19.3485 61.5785C19.739 61.3741 20.0515 61.0912 20.3015 60.7297L21.7857 61.9242C20.9108 63.1187 19.6297 63.7159 17.958 63.7159C17.2706 63.7159 16.63 63.6059 16.0363 63.3859C15.4582 63.1659 14.9427 62.8515 14.5208 62.4586C14.099 62.0657 13.7553 61.5627 13.521 60.9969C13.2866 60.4311 13.1616 59.7553 13.1616 59.0166C13.1616 58.2936 13.2866 57.6335 13.521 57.0363C13.7553 56.4391 14.099 55.9361 14.5208 55.5275C14.9427 55.1031 15.4426 54.7888 16.0207 54.553C16.5988 54.3173 17.2237 54.2073 17.8955 54.2073C18.5204 54.2073 19.0829 54.3173 19.6141 54.5216C20.1453 54.7259 20.5983 55.0403 20.9889 55.4332C21.3795 55.8418 21.6763 56.3448 21.8951 56.942C22.0982 57.555 22.2075 58.2622 22.2075 59.0795ZM19.9734 58.0579C19.9734 57.775 19.9265 57.4921 19.8484 57.2406C19.7703 56.9734 19.6453 56.7534 19.4735 56.5491C19.3016 56.3448 19.0829 56.1876 18.8173 56.0776C18.5517 55.9518 18.2392 55.9047 17.8799 55.9047C17.2081 55.9047 16.6456 56.109 16.1769 56.5176C15.7082 56.9263 15.4582 57.4449 15.4114 58.0736H19.9734V58.0579Z" fill="#EE101F"></path><path d="M23.6139 54.4745H25.7387V55.9204H25.7699C25.973 55.4646 26.3167 55.0717 26.801 54.7259C27.2854 54.3802 27.8634 54.2073 28.5352 54.2073C29.1133 54.2073 29.6132 54.3173 30.0351 54.5216C30.4569 54.7259 30.785 54.9931 31.0506 55.3389C31.3162 55.6689 31.5193 56.0619 31.6443 56.5019C31.7693 56.942 31.8318 57.3821 31.8318 57.8536V63.4645H29.5976V58.4665C29.5976 58.1993 29.582 57.9322 29.5351 57.6493C29.5039 57.3664 29.4101 57.0992 29.3008 56.8791C29.1758 56.6434 29.0039 56.4548 28.7852 56.3133C28.5665 56.1562 28.2853 56.0933 27.9259 56.0933C27.5666 56.0933 27.2541 56.1719 26.9885 56.3133C26.7229 56.4548 26.5198 56.6434 26.348 56.8634C26.1761 57.0835 26.0511 57.3506 25.973 57.6335C25.8793 57.9322 25.848 58.2308 25.848 58.5294V63.4645H23.6139V54.4745Z" fill="#EE101F"></path><path d="M42.2212 59.0795C42.2212 59.1738 42.2212 59.2838 42.2212 59.3781C42.2212 59.4724 42.2212 59.5824 42.2056 59.6767H35.4094C35.4407 60.0068 35.5188 60.2897 35.6594 60.5726C35.8 60.8398 35.9875 61.0755 36.2219 61.2641C36.4562 61.4527 36.7218 61.6099 37.0186 61.7199C37.3155 61.8299 37.628 61.8928 37.9561 61.8928C38.5185 61.8928 38.9872 61.7828 39.3622 61.5785C39.7527 61.3741 40.0652 61.0912 40.3152 60.7297L41.7994 61.9242C40.9245 63.1187 39.6434 63.7159 37.9717 63.7159C37.2842 63.7159 36.6437 63.6059 36.05 63.3859C35.4719 63.1659 34.9564 62.8515 34.5345 62.4586C34.1127 62.0657 33.769 61.5627 33.5346 60.9969C33.3003 60.4154 33.1753 59.7553 33.1753 59.0166C33.1753 58.2936 33.3003 57.6335 33.5346 57.0363C33.769 56.4391 34.1127 55.9361 34.5345 55.5275C34.9564 55.1031 35.4563 54.7888 36.0344 54.553C36.6124 54.3173 37.2374 54.2073 37.9092 54.2073C38.5341 54.2073 39.0966 54.3173 39.6278 54.5216C40.1589 54.7259 40.612 55.0403 41.0026 55.4332C41.3932 55.8418 41.69 56.3448 41.9088 56.942C42.1119 57.555 42.2212 58.2622 42.2212 59.0795ZM39.9871 58.0579C39.9871 57.775 39.9402 57.4921 39.8621 57.2406C39.784 56.9734 39.659 56.7534 39.4871 56.5491C39.3153 56.3448 39.0966 56.1876 38.831 56.0776C38.5654 55.9518 38.2529 55.9047 37.8936 55.9047C37.2217 55.9047 36.6593 56.109 36.1906 56.5176C35.7219 56.9263 35.4719 57.4449 35.4251 58.0736H39.9871V58.0579Z" fill="#EE101F"></path><path d="M54.2983 54.2073C54.8764 54.2073 55.3763 54.3173 55.7981 54.5216C56.22 54.7259 56.5481 54.9931 56.8137 55.3389C57.0793 55.6689 57.2824 56.0619 57.4074 56.5019C57.5323 56.942 57.5948 57.3821 57.5948 57.8536V63.4645H55.3607V58.4665C55.3607 58.1993 55.3451 57.9322 55.2982 57.6493C55.267 57.3664 55.1732 57.0992 55.0639 56.8791C54.9389 56.6434 54.767 56.4548 54.5483 56.3133C54.3295 56.1562 54.0483 56.0933 53.689 56.0933C53.3453 56.0933 53.0484 56.1719 52.7985 56.3133C52.5485 56.4705 52.3454 56.6591 52.1892 56.8949C52.0329 57.1306 51.9079 57.3978 51.8298 57.6964C51.7517 57.995 51.7205 58.2779 51.7205 58.5608V63.4645H49.4863V58.0422C49.4863 57.4764 49.3457 57.0206 49.0801 56.6434C48.8145 56.2819 48.3927 56.0933 47.8302 56.0933C47.5021 56.0933 47.2053 56.1719 46.9553 56.3133C46.7054 56.4548 46.5022 56.6434 46.346 56.8634C46.1898 57.0835 46.0804 57.3506 45.9867 57.6335C45.9086 57.9322 45.8617 58.2308 45.8617 58.5294V63.4645H43.6432V54.4745H45.7679V55.9204H45.7992C45.8929 55.7004 46.0335 55.4803 46.2054 55.2917C46.3773 55.0874 46.5647 54.9145 46.7991 54.7416C47.0334 54.5845 47.299 54.4587 47.5959 54.3644C47.8927 54.2701 48.2208 54.223 48.5802 54.223C49.2676 54.223 49.8456 54.3802 50.3143 54.6945C50.7674 55.0088 51.1268 55.4175 51.3767 55.9361C51.6736 55.386 52.0642 54.9617 52.5641 54.6788C53.0484 54.3487 53.6265 54.2073 54.2983 54.2073Z" fill="#EE101F"></path><path d="M67.9684 59.0795C67.9684 59.1738 67.9684 59.2838 67.9684 59.3781C67.9684 59.4724 67.9684 59.5824 67.9528 59.6767H61.1566C61.1878 60.0068 61.266 60.2897 61.4066 60.5726C61.5472 60.8398 61.7347 61.0755 61.969 61.2641C62.2034 61.4527 62.469 61.6099 62.7658 61.7199C63.0626 61.8299 63.3751 61.8928 63.7032 61.8928C64.2656 61.8928 64.7343 61.7828 65.1249 61.5785C65.5155 61.3741 65.828 61.0912 66.078 60.7297L67.5622 61.9242C66.6873 63.1187 65.4062 63.7159 63.7345 63.7159C63.047 63.7159 62.4065 63.6059 61.8128 63.3859C61.2347 63.1659 60.7191 62.8515 60.2973 62.4586C59.8755 62.0657 59.5318 61.5627 59.2974 60.9969C59.0631 60.4311 58.9381 59.7553 58.9381 59.0166C58.9381 58.2936 59.0631 57.6335 59.2974 57.0363C59.5318 56.4391 59.8755 55.9361 60.2973 55.5275C60.7191 55.1031 61.2191 54.7888 61.7972 54.553C62.3752 54.3173 63.0002 54.2073 63.672 54.2073C64.2969 54.2073 64.8593 54.3173 65.3905 54.5216C65.9217 54.7259 66.3748 55.0403 66.7498 55.4332C67.1403 55.8418 67.4372 56.3448 67.6559 56.942C67.859 57.555 67.9684 58.2622 67.9684 59.0795ZM65.7342 58.0579C65.7342 57.775 65.6874 57.4921 65.6093 57.2406C65.5311 56.9734 65.4062 56.7534 65.2343 56.5491C65.0624 56.3448 64.8437 56.1876 64.5781 56.0776C64.3125 55.9518 64 55.9047 63.6407 55.9047C62.9689 55.9047 62.4065 56.109 61.9378 56.5176C61.4691 56.9263 61.2191 57.4449 61.1722 58.0736H65.7342V58.0579Z" fill="#EE101F"></path><path d="M69.3747 54.4745H71.5151V55.9676H71.5464C71.7964 55.4489 72.1401 55.0245 72.5931 54.6945C73.0462 54.3644 73.5618 54.2073 74.1555 54.2073C74.2492 54.2073 74.3273 54.2073 74.4367 54.223C74.5304 54.223 74.6242 54.2387 74.7023 54.2701V56.329C74.5461 56.2976 74.4211 56.2662 74.3273 56.2505C74.218 56.2347 74.1242 56.2347 74.0149 56.2347C73.4993 56.2347 73.0931 56.329 72.7806 56.5176C72.4682 56.7062 72.2338 56.9263 72.062 57.1935C71.8901 57.4607 71.7651 57.7278 71.7026 57.995C71.6401 58.2622 71.6089 58.4822 71.6089 58.6551V63.4645H69.3747V54.4745Z" fill="#EE101F"></path><path d="M84.4825 62.6473C84.4825 63.4646 84.3887 64.1875 84.1856 64.8476C83.9825 65.5078 83.6857 66.0578 83.2639 66.5136C82.842 66.9694 82.3265 67.3152 81.6859 67.5667C81.061 67.8181 80.2954 67.9439 79.4361 67.9439C79.0768 67.9439 78.7018 67.9124 78.2956 67.8496C77.8894 67.7867 77.4988 67.6924 77.1083 67.5667C76.7177 67.4409 76.3427 67.2837 75.9834 67.0951C75.624 66.9065 75.2959 66.7022 75.0147 66.4665L76.2958 64.7219C76.7333 65.1305 77.2176 65.4449 77.7644 65.6649C78.3112 65.8849 78.8581 65.995 79.4205 65.995C79.9517 65.995 80.4048 65.9164 80.7641 65.7592C81.1235 65.6021 81.4203 65.382 81.639 65.1148C81.8578 64.8319 82.014 64.5176 82.1077 64.1404C82.2015 63.7632 82.2483 63.3546 82.2483 62.8988V62.2387H82.2171C81.889 62.6787 81.4828 63.0245 80.9828 63.2445C80.4829 63.4803 79.9205 63.5903 79.2955 63.5903C78.6237 63.5903 78.0144 63.4646 77.4676 63.2131C76.9208 62.9616 76.4521 62.6316 76.0771 62.2072C75.7022 61.7829 75.4053 61.2799 75.1866 60.7141C74.9679 60.1483 74.8741 59.5511 74.8741 58.9067C74.8741 58.2623 74.9835 57.6493 75.1866 57.0678C75.3897 56.4863 75.6865 55.9991 76.0615 55.5747C76.4365 55.1504 76.9052 54.8203 77.4363 54.5689C77.9832 54.3174 78.5769 54.1917 79.2487 54.1917C79.8736 54.1917 80.4673 54.3174 81.0141 54.5846C81.5609 54.8518 81.9984 55.2447 82.3108 55.7948H82.3421V54.4431H84.4825V62.6473ZM79.733 56.0462C79.3268 56.0462 78.9674 56.1248 78.6394 56.2663C78.3269 56.4077 78.0613 56.612 77.8426 56.8792C77.6238 57.1307 77.452 57.4293 77.3426 57.7908C77.2176 58.1366 77.1708 58.5138 77.1708 58.9067C77.1708 59.2682 77.2332 59.6139 77.3426 59.944C77.4676 60.2741 77.6238 60.5884 77.8426 60.8556C78.0613 61.1228 78.3269 61.3428 78.6394 61.5C78.9518 61.6571 79.3111 61.7357 79.7017 61.7357C80.1079 61.7357 80.4829 61.6571 80.811 61.5C81.1391 61.3428 81.4203 61.1385 81.6547 60.8713C81.889 60.6041 82.0609 60.3055 82.1859 59.9597C82.3108 59.614 82.3733 59.2525 82.3733 58.891C82.3733 58.4981 82.3108 58.1366 82.1859 57.7908C82.0609 57.445 81.889 57.1307 81.6547 56.8792C81.4203 56.612 81.1547 56.4077 80.8266 56.2663C80.4985 56.1091 80.1392 56.0462 79.733 56.0462Z" fill="#EE101F"></path><path d="M94.9344 59.0795C94.9344 59.1738 94.9344 59.2838 94.9344 59.3781C94.9344 59.4724 94.9344 59.5824 94.9188 59.6767H88.1226C88.1539 60.0068 88.232 60.2897 88.3726 60.5726C88.5132 60.8398 88.7007 61.0755 88.935 61.2641C89.1694 61.4527 89.435 61.6099 89.7318 61.7199C90.0287 61.8299 90.3411 61.8928 90.6692 61.8928C91.2317 61.8928 91.7004 61.7828 92.0753 61.5785C92.4659 61.3741 92.7784 61.0912 93.0283 60.7297L94.5126 61.9242C93.6377 63.1187 92.3565 63.7159 90.6848 63.7159C89.9974 63.7159 89.3569 63.6059 88.7632 63.3859C88.1851 63.1659 87.6695 62.8515 87.2477 62.4586C86.8259 62.0657 86.4822 61.5627 86.2478 60.9969C86.0135 60.4154 85.8885 59.7553 85.8885 59.0166C85.8885 58.2936 86.0135 57.6335 86.2478 57.0363C86.4822 56.4391 86.8259 55.9361 87.2477 55.5275C87.6695 55.1031 88.1695 54.7888 88.7476 54.553C89.3256 54.3173 89.9505 54.2073 90.6224 54.2073C91.2473 54.2073 91.8097 54.3173 92.3409 54.5216C92.8721 54.7259 93.3252 55.0403 93.7158 55.4332C94.1064 55.8418 94.4032 56.3448 94.6219 56.942C94.8407 57.555 94.9344 58.2622 94.9344 59.0795ZM92.7159 58.0579C92.7159 57.775 92.669 57.4921 92.5909 57.2406C92.5128 56.9734 92.3878 56.7534 92.2159 56.5491C92.0441 56.3448 91.8253 56.1876 91.5598 56.0776C91.2942 55.9518 90.9817 55.9047 90.6224 55.9047C89.9505 55.9047 89.3881 56.109 88.9194 56.5176C88.4507 56.9263 88.2007 57.4449 88.1539 58.0736H92.7159V58.0579Z" fill="#EE101F"></path><path d="M96.3563 54.4745H98.4811V55.9204H98.5124C98.7155 55.4646 99.0592 55.0717 99.5435 54.7259C100.028 54.3802 100.606 54.2073 101.278 54.2073C101.856 54.2073 102.356 54.3173 102.778 54.5216C103.199 54.7259 103.527 54.9931 103.793 55.3389C104.059 55.6689 104.262 56.0619 104.387 56.5019C104.512 56.942 104.574 57.3821 104.574 57.8536V63.4645H102.34V58.4665C102.34 58.1993 102.324 57.9322 102.278 57.6493C102.246 57.3664 102.153 57.0992 102.043 56.8791C101.918 56.6434 101.746 56.4548 101.528 56.3133C101.309 56.1562 101.028 56.0933 100.668 56.0933C100.309 56.0933 99.9966 56.1719 99.731 56.3133C99.4654 56.4548 99.2623 56.6434 99.0904 56.8634C98.9186 57.0835 98.7936 57.3506 98.7155 57.6335C98.6217 57.9322 98.5905 58.2308 98.5905 58.5294V63.4645H96.3563V54.4745Z" fill="#EE101F"></path><path d="M112.542 56.9577C112.37 56.7062 112.105 56.5019 111.761 56.329C111.417 56.1562 111.058 56.0776 110.699 56.0776C110.292 56.0776 109.933 56.1562 109.621 56.329C109.308 56.5019 109.058 56.722 108.855 56.9892C108.652 57.2563 108.496 57.5707 108.402 57.9164C108.308 58.2622 108.246 58.608 108.246 58.9538C108.246 59.2995 108.293 59.6453 108.402 59.9911C108.511 60.3368 108.667 60.6354 108.871 60.9184C109.074 61.1855 109.339 61.4213 109.667 61.5785C109.98 61.7513 110.355 61.8299 110.777 61.8299C111.12 61.8299 111.464 61.7671 111.823 61.6256C112.167 61.4842 112.448 61.2956 112.667 61.0284L114.058 62.4429C113.683 62.8358 113.214 63.1501 112.636 63.3702C112.058 63.5902 111.433 63.7002 110.761 63.7002C110.105 63.7002 109.48 63.5902 108.886 63.3859C108.293 63.1816 107.777 62.8672 107.34 62.4429C106.902 62.0342 106.558 61.5313 106.293 60.9498C106.043 60.3683 105.918 59.6924 105.918 58.9538C105.918 58.2308 106.043 57.5707 106.293 56.9892C106.543 56.4076 106.886 55.9047 107.324 55.4961C107.761 55.0874 108.261 54.7731 108.839 54.5373C109.417 54.3016 110.027 54.2073 110.683 54.2073C111.339 54.2073 111.98 54.333 112.589 54.5845C113.198 54.8359 113.683 55.1817 114.042 55.6061L112.542 56.9577Z" fill="#EE101F"></path><path d="M114.495 51.4254C114.495 51.0639 114.636 50.7496 114.901 50.4824C115.167 50.2152 115.51 50.0737 115.917 50.0737C116.323 50.0737 116.667 50.1995 116.948 50.4509C117.229 50.7024 117.37 51.0325 117.37 51.4097C117.37 51.8026 117.229 52.1169 116.948 52.3684C116.667 52.6199 116.323 52.7456 115.917 52.7456C115.51 52.7456 115.167 52.6041 114.901 52.3369C114.62 52.1012 114.495 51.7869 114.495 51.4254ZM114.807 54.4744H117.042V63.4644H114.807V54.4744Z" fill="#EE101F"></path><path d="M124.556 62.3172H124.494C124.275 62.7102 123.916 63.0402 123.416 63.3074C122.916 63.5589 122.353 63.6846 121.728 63.6846C121.369 63.6846 120.994 63.6375 120.604 63.5431C120.213 63.4488 119.854 63.2917 119.526 63.0716C119.197 62.8516 118.916 62.5687 118.713 62.2072C118.494 61.8457 118.385 61.4057 118.385 60.887C118.385 60.2112 118.573 59.6768 118.948 59.2839C119.322 58.891 119.807 58.5766 120.4 58.3723C120.994 58.168 121.65 58.0266 122.385 57.948C123.103 57.8851 123.822 57.838 124.509 57.838V57.6179C124.509 57.0521 124.306 56.6435 123.9 56.3763C123.494 56.1091 123.01 55.9677 122.463 55.9677C121.994 55.9677 121.541 56.062 121.104 56.2663C120.666 56.4706 120.307 56.7063 120.026 56.9892L118.869 55.6219C119.385 55.1504 119.963 54.7889 120.635 54.5531C121.291 54.3174 121.978 54.1917 122.65 54.1917C123.447 54.1917 124.103 54.3017 124.619 54.5217C125.134 54.7417 125.541 55.0404 125.837 55.4018C126.134 55.7633 126.337 56.172 126.462 56.612C126.587 57.0678 126.634 57.5079 126.634 57.9637V63.4331H124.556V62.3172ZM124.525 59.3468H124.025C123.666 59.3468 123.291 59.3625 122.885 59.3939C122.494 59.4253 122.119 59.4882 121.791 59.5982C121.463 59.7083 121.182 59.8497 120.947 60.054C120.729 60.2426 120.619 60.5098 120.619 60.8556C120.619 61.0756 120.666 61.2485 120.76 61.3899C120.854 61.5314 120.979 61.6414 121.119 61.7357C121.275 61.83 121.432 61.8929 121.619 61.9243C121.807 61.9558 121.994 61.9872 122.182 61.9872C122.947 61.9872 123.541 61.7829 123.931 61.3742C124.322 60.9656 124.525 60.3998 124.525 59.6925V59.3468Z" fill="#EE101F"></path><path d="M65.9218 7.26123C61.9222 7.26123 58.157 8.83291 55.3292 11.6777C52.5013 14.5224 50.939 18.3101 50.939 22.3336C50.939 26.3572 52.5013 30.1449 55.3292 32.9896C58.157 35.8344 61.9222 37.4061 65.9218 37.4061C69.9214 37.4061 73.6866 35.8344 76.5144 32.9896C79.3423 30.1449 80.9046 26.3572 80.9046 22.3336C80.9046 18.3101 79.3423 14.5224 76.5144 11.6777C73.6866 8.83291 69.9214 7.26123 65.9218 7.26123ZM65.9218 8.12565C73.7335 8.12565 80.0453 14.491 80.0453 22.3336C80.0453 30.1763 73.7179 36.5416 65.9218 36.5416C58.1257 36.5416 51.7983 30.1763 51.7983 22.3336C51.7983 14.491 58.1101 8.12565 65.9218 8.12565Z" fill="#EE101F"></path><path d="M65.9219 3.552C63.4066 3.552 60.9537 4.05494 58.6571 5.02938C56.4385 5.97239 54.4388 7.32403 52.7202 9.05288C51.0016 10.7817 49.658 12.7935 48.7206 15.0253C47.752 17.3356 47.252 19.8032 47.252 22.3336C47.252 24.864 47.752 27.3315 48.7206 29.6419C49.658 31.8737 51.0016 33.8854 52.7202 35.6143C54.4388 37.3431 56.4385 38.6948 58.6571 39.6378C60.9537 40.6122 63.4066 41.1152 65.9219 41.1152C68.4373 41.1152 70.8902 40.6122 73.1868 39.6378C75.4053 38.6948 77.4051 37.3431 79.1237 35.6143C80.8422 33.8854 82.1859 31.8737 83.1233 29.6419C84.0919 27.3315 84.5918 24.864 84.5918 22.3336C84.5918 19.8032 84.0919 17.3356 83.1233 15.0253C82.1859 12.7935 80.8422 10.7817 79.1237 9.05288C77.4051 7.32403 75.4053 5.97239 73.1868 5.02938C70.8902 4.03922 68.4373 3.552 65.9219 3.552ZM65.9219 4.41643C75.7647 4.41643 83.7482 12.4477 83.7482 22.3493C83.7482 32.2509 75.7647 40.2822 65.9219 40.2822C56.0792 40.2822 48.0957 32.2509 48.0957 22.3493C48.0957 12.432 56.0792 4.41643 65.9219 4.41643Z" fill="#EE101F"></path><path d="M65.9217 0C62.922 0 60.016 0.597239 57.282 1.76028C54.6416 2.89189 52.2669 4.49501 50.2202 6.55391C48.1735 8.61281 46.5799 11.0018 45.4551 13.6579C44.2989 16.4083 43.7052 19.3317 43.7052 22.3493C43.7052 25.3669 44.2989 28.2902 45.4551 31.0407C46.5799 33.6968 48.1735 36.0858 50.2202 38.1447C52.2669 40.2036 54.6416 41.8067 57.282 42.9383C60.016 44.1014 62.922 44.6986 65.9217 44.6986C68.9214 44.6986 71.8273 44.1014 74.5614 42.9383C77.2017 41.8067 79.5765 40.2036 81.6231 38.1447C83.6698 36.0858 85.2634 33.6968 86.3883 31.0407C87.5444 28.2902 88.1381 25.3669 88.1381 22.3493C88.1381 19.3317 87.5444 16.4083 86.3883 13.6579C85.2634 11.0018 83.6698 8.61281 81.6231 6.55391C79.5765 4.49501 77.2174 2.89189 74.5614 1.76028C71.8273 0.597239 68.9214 0 65.9217 0ZM65.9217 0.864424C77.7173 0.864424 87.2632 10.4831 87.2632 22.3336C87.2632 34.1841 77.7017 43.8185 65.9217 43.8185C54.1417 43.8185 44.5802 34.1998 44.5802 22.3493C44.5802 10.4988 54.126 0.864424 65.9217 0.864424Z" fill="#EE101F"></path></svg>