<svg xmlns="http://www.w3.org/2000/svg" width="24" height="18" viewBox="0 0 24 18" fill="none"><path d="M3.432 0H20.568C22.464 0 24 1.51181 24 3.37795V14.5984C24 16.4646 22.464 17.9764 20.568 17.9764H3.432C1.536 18 0 16.4882 0 14.622V3.37795C0 1.51181 1.536 0 3.432 0ZM4.392 2.71654L11.616 9.49606C11.832 9.70866 12.192 9.70866 12.408 9.49606L19.632 2.71654H4.392ZM21.24 4.91339L14.28 11.4567C13.008 12.6614 10.992 12.6614 9.72 11.4567L2.76 4.91339V14.622C2.76 15 3.072 15.2835 3.432 15.2835H20.568C20.952 15.2835 21.24 14.9764 21.24 14.622V4.91339Z" fill="white"></path></svg>